<?xml version="1.0" encoding="UTF-8" standalone="no"?>
<!-- Created with Inkscape (http://www.inkscape.org/) -->

<svg
   width="480"
   height="1080"
   viewBox="0 0 127 285.75"
   version="1.1"
   id="svg5"
   inkscape:version="1.1.2 (0a00cf5339, 2022-02-04)"
   sodipodi:docname="Wallpaper-32-Mobile-Asset.svg"
   inkscape:export-filename="/home/ogyun/Documents/site/cj1063-s-websites-testing/assets/Wallpapers/Wallpaper-32-Mobile.png"
   inkscape:export-xdpi="96"
   inkscape:export-ydpi="96"
   xmlns:inkscape="http://www.inkscape.org/namespaces/inkscape"
   xmlns:sodipodi="http://sodipodi.sourceforge.net/DTD/sodipodi-0.dtd"
   xmlns="http://www.w3.org/2000/svg"
   xmlns:svg="http://www.w3.org/2000/svg">
  <sodipodi:namedview
     id="namedview7"
     pagecolor="#505050"
     bordercolor="#eeeeee"
     borderopacity="1"
     inkscape:pageshadow="0"
     inkscape:pageopacity="0"
     inkscape:pagecheckerboard="0"
     inkscape:document-units="mm"
     showgrid="false"
     units="px"
     inkscape:snap-bbox="true"
     inkscape:bbox-paths="true"
     inkscape:bbox-nodes="true"
     inkscape:snap-bbox-edge-midpoints="true"
     inkscape:snap-bbox-midpoints="true"
     inkscape:object-paths="true"
     inkscape:snap-intersection-paths="true"
     inkscape:snap-smooth-nodes="true"
     inkscape:snap-midpoints="true"
     inkscape:snap-object-midpoints="true"
     inkscape:snap-center="true"
     inkscape:snap-text-baseline="true"
     inkscape:snap-page="true"
     inkscape:snap-global="false"
     inkscape:zoom="1.5055415"
     inkscape:cx="-332.43852"
     inkscape:cy="794.06643"
     inkscape:window-width="1920"
     inkscape:window-height="1021"
     inkscape:window-x="1366"
     inkscape:window-y="27"
     inkscape:window-maximized="1"
     inkscape:current-layer="layer1"
     height="480px" />
  <defs
     id="defs2">
    <inkscape:path-effect
       effect="bspline"
       id="path-effect14942"
       is_visible="true"
       lpeversion="1"
       weight="33.333333"
       steps="2"
       helper_size="0"
       apply_no_weight="true"
       apply_with_weight="true"
       only_selected="false" />
    <inkscape:path-effect
       effect="bspline"
       id="path-effect12712"
       is_visible="true"
       lpeversion="1"
       weight="33.333333"
       steps="2"
       helper_size="0"
       apply_no_weight="true"
       apply_with_weight="true"
       only_selected="false" />
    <inkscape:path-effect
       effect="bspline"
       id="path-effect10423"
       is_visible="true"
       lpeversion="1"
       weight="33.333333"
       steps="2"
       helper_size="0"
       apply_no_weight="true"
       apply_with_weight="true"
       only_selected="false" />
    <inkscape:path-effect
       effect="bspline"
       id="path-effect7400"
       is_visible="true"
       lpeversion="1"
       weight="33.333333"
       steps="2"
       helper_size="0"
       apply_no_weight="true"
       apply_with_weight="true"
       only_selected="false" />
    <inkscape:path-effect
       effect="bspline"
       id="path-effect7171"
       is_visible="true"
       lpeversion="1"
       weight="33.333333"
       steps="2"
       helper_size="0"
       apply_no_weight="true"
       apply_with_weight="true"
       only_selected="false" />
    <inkscape:path-effect
       effect="bspline"
       id="path-effect4214"
       is_visible="true"
       lpeversion="1"
       weight="33.333333"
       steps="2"
       helper_size="0"
       apply_no_weight="true"
       apply_with_weight="true"
       only_selected="false" />
    <inkscape:path-effect
       effect="bspline"
       id="path-effect193"
       is_visible="true"
       lpeversion="1"
       weight="33.333333"
       steps="2"
       helper_size="0"
       apply_no_weight="true"
       apply_with_weight="true"
       only_selected="false" />
    <inkscape:path-effect
       effect="bspline"
       id="path-effect77"
       is_visible="true"
       lpeversion="1"
       weight="33.333333"
       steps="2"
       helper_size="0"
       apply_no_weight="true"
       apply_with_weight="true"
       only_selected="false" />
    <inkscape:path-effect
       effect="bspline"
       id="path-effect4214-3"
       is_visible="true"
       lpeversion="1"
       weight="33.333333"
       steps="2"
       helper_size="0"
       apply_no_weight="true"
       apply_with_weight="true"
       only_selected="false" />
    <inkscape:path-effect
       effect="bspline"
       id="path-effect7171-7"
       is_visible="true"
       lpeversion="1"
       weight="33.333333"
       steps="2"
       helper_size="0"
       apply_no_weight="true"
       apply_with_weight="true"
       only_selected="false" />
    <inkscape:path-effect
       effect="bspline"
       id="path-effect7400-3"
       is_visible="true"
       lpeversion="1"
       weight="33.333333"
       steps="2"
       helper_size="0"
       apply_no_weight="true"
       apply_with_weight="true"
       only_selected="false" />
    <inkscape:path-effect
       effect="bspline"
       id="path-effect7400-3-6"
       is_visible="true"
       lpeversion="1"
       weight="33.333333"
       steps="2"
       helper_size="0"
       apply_no_weight="true"
       apply_with_weight="true"
       only_selected="false" />
    <inkscape:path-effect
       effect="bspline"
       id="path-effect7400-2"
       is_visible="true"
       lpeversion="1"
       weight="33.333333"
       steps="2"
       helper_size="0"
       apply_no_weight="true"
       apply_with_weight="true"
       only_selected="false" />
    <inkscape:path-effect
       effect="bspline"
       id="path-effect193-9"
       is_visible="true"
       lpeversion="1"
       weight="33.333333"
       steps="2"
       helper_size="0"
       apply_no_weight="true"
       apply_with_weight="true"
       only_selected="false" />
    <inkscape:path-effect
       effect="bspline"
       id="path-effect77-1"
       is_visible="true"
       lpeversion="1"
       weight="33.333333"
       steps="2"
       helper_size="0"
       apply_no_weight="true"
       apply_with_weight="true"
       only_selected="false" />
    <inkscape:path-effect
       effect="bspline"
       id="path-effect7171-6"
       is_visible="true"
       lpeversion="1"
       weight="33.333333"
       steps="2"
       helper_size="0"
       apply_no_weight="true"
       apply_with_weight="true"
       only_selected="false" />
  </defs>
  <g
     inkscape:label="Layer 1"
     inkscape:groupmode="layer"
     id="layer1"
     style="display:inline;opacity:1">
    <rect
       style="display:inline;fill:#00abab;fill-opacity:1;stroke:#000000;stroke-width:0.327001;stroke-linecap:round;stroke-linejoin:round"
       id="rect134"
       width="508"
       height="285.75"
       x="-192.81168"
       y="-310.32629"
       transform="scale(1,-1)" />
    <path
       style="display:inline;fill:#00ffff;stroke:#000000;stroke-width:0.264583px;stroke-linecap:butt;stroke-linejoin:miter;stroke-opacity:1"
       d="m -183.70549,183.71165 c 23.47438,-45.12158 52.75507,-100.777154 86.24695,-89.516351 33.491882,11.260801 71.193247,89.434661 101.9123142,102.170921 30.7190678,12.73626 54.4543398,-39.96432 83.6778398,-45.6531 29.223496,-5.68878 63.933076,35.63351 99.945646,31.11418 36.01258,-4.51933 73.32625,-54.87884 102.06785,-42.8333 28.74161,12.04553 48.90947,86.49387 53.0112,128.30614 4.10172,41.81226 -7.8626,50.98693 -98.88827,55.35097 -91.02567,4.36404 -261.105908,3.91725 -355.41358,-0.9917 -94.30768,-4.90896 -112.83871,-14.27987 -113.27038,-36.25957 -0.43167,-21.97971 17.23605,-56.5666 40.71043,-101.68819 z"
       id="path75"
       inkscape:original-d="m -189.51175,194.24556 c 29.28096,-55.65532 58.56164,-111.3109 87.84207,-166.966745 37.703131,78.177235 75.404501,156.351085 113.106351,234.526235 23.73649,-52.70243 47.47176,-105.40301 71.20725,-158.10492 34.711209,41.3242 69.420789,82.64648 104.130789,123.96932 37.31543,-50.36126 74.62909,-100.72077 111.94325,-151.081555 20.16892,74.451595 40.33679,148.899935 60.50481,223.349505 -11.96451,9.1753 -23.92884,18.34996 -35.89364,27.52455 -170.08676,-0.44654 -340.166999,-0.89334 -510.2509,-1.34038 -18.5315,-9.37102 -37.06253,-18.74192 -55.59419,-28.11328 17.66869,-34.588 35.33641,-69.17489 53.00421,-103.76273 z"
       inkscape:path-effect="#path-effect77" />
    <path
       style="display:inline;fill:#00dada;fill-opacity:1;stroke:#000000;stroke-width:0.264583px;stroke-linecap:butt;stroke-linejoin:miter;stroke-opacity:1"
       d="m -208.99992,272.69 c 17.12454,-59.29605 61.46517,-147.29729 93.1789,-161.34372 31.713738,-14.046429 50.797518,45.86169 74.39498,76.42577 23.597462,30.56408 51.705602,31.78078 74.832865,18.87338 23.127263,-12.9074 41.271171,-39.93741 60.847881,-43.65042 19.576714,-3.713 40.583974,15.89167 59.686794,24.05253 19.10281,8.16087 36.30012,4.87798 58.60179,-9.28439 22.30166,-14.16238 49.70588,-39.20273 72.3152,-34.03981 22.60932,5.16292 40.42093,40.52816 47.67501,73.20699 7.25408,32.67882 3.94988,62.668 -0.70073,91.59214 -4.65061,28.92413 -10.64755,56.78266 -100.50233,70.71183 -89.85478,13.92916 -263.560739,13.92916 -355.46178,-1.36542 -91.90105,-15.29459 -101.99312,-45.88284 -84.86858,-105.17888 z"
       id="path191"
       sodipodi:nodetypes="ccccccccccccc"
       inkscape:original-d="m -236.21684,301.39686 c 44.34178,-88.00275 88.68241,-176.00399 133.02454,-264.00902 19.085181,59.911959 38.168961,119.82008 57.253611,179.7315 28.1101,1.21704 56.21824,2.43375 84.32782,3.65026 18.14526,-27.03137 36.28917,-54.06138 54.43391,-81.09329 21.008369,19.60571 42.015629,39.21038 63.023039,58.81516 17.19829,-3.28276 34.3956,-6.56564 51.59301,-9.84886 27.40611,-25.04157 54.81033,-50.08191 82.2159,-75.124 17.81293,35.3676 35.62453,70.73284 53.43694,106.09993 -3.30407,29.99064 -6.60826,59.97982 -9.91279,89.96934 -5.99668,27.85879 -11.99362,55.71732 -17.99082,83.57558 -173.71266,2.7e-4 -347.418619,2.7e-4 -521.12833,0 -10.09221,-30.58922 -20.18429,-61.17747 -30.27683,-91.7666 z"
       inkscape:path-effect="#path-effect193" />
    <path
       style="display:inline;fill:#00a6a6;fill-opacity:1;stroke:#000000;stroke-width:0.264583px;stroke-linecap:butt;stroke-linejoin:miter;stroke-opacity:1"
       d="m -129.93544,438.84382 c 34.759482,-3.58563 41.473767,8.7611 123.4510621,23.85599 C 75.492917,477.7947 232.7234,495.63645 301.10358,433.1808 c 68.38018,-62.45564 47.90214,-205.20141 14.41918,-255.90566 -33.48295,-50.70425 -79.96671,-9.36056 -108.62024,10.65364 -28.65354,20.0142 -39.47362,18.69639 -54.79604,8.31202 -15.32241,-10.38438 -35.1453,-29.83431 -59.189714,-21.53104 -24.044415,8.30326 -52.307197,44.35895 -77.881114,52.06279 -25.573917,7.70384 -48.456652,-12.94574 -66.097531,-39.37406 -17.640879,-26.42833 -30.038559,-58.63314 -46.574481,-65.8066 -16.53592,-7.17347 -37.20801,10.6856 -55.28011,42.3229 -18.0721,31.6373 -33.542,77.04889 -56.00682,132.27147 -22.46482,55.22257 -51.92191,120.24962 -35.24836,143.0055 16.67355,22.75588 79.47673,3.23768 114.23621,-0.34794 z"
       id="path7398"
       sodipodi:nodetypes="cccccccccccccc"
       inkscape:original-d="m -101.89056,422.91088 c 6.714696,12.34726 13.428981,24.69399 20.143281,37.04097 C 75.492891,477.79493 232.72337,495.63668 389.963,513.47923 369.48398,370.72513 349.00594,227.97936 328.52639,85.224693 282.04006,126.57117 235.5563,167.91486 189.06942,209.26083 c -10.82047,-1.31762 -21.64055,-2.63543 -32.46155,-3.95358 -19.8238,-19.45083 -39.64669,-38.90076 -59.471019,-58.35211 -28.26421,36.05811 -56.52699,72.1138 -84.79174,108.1714 -22.88339,-20.65014 -45.76612,-41.29972 -68.64957,-61.94996 -12.39816,-32.20647 -24.79584,-64.41128 -37.194522,-96.618276 -20.673059,17.860396 -41.345139,35.719466 -62.018719,53.579326 -15.47055,45.41457 -30.94045,90.82616 -46.41153,136.24019 -29.45856,65.03116 -58.91565,130.05821 -88.37476,195.08886 62.80599,-19.51873 125.60917,-39.03692 188.41343,-58.5558 z"
       inkscape:path-effect="#path-effect7400" />
    <path
       style="display:inline;fill:#009696;fill-opacity:1;stroke:#000000;stroke-width:0.264583px;stroke-linecap:butt;stroke-linejoin:miter;stroke-opacity:1"
       d="m -134.64772,453.71697 c 34.759483,-3.58563 41.473768,8.7611 123.451063,23.85599 81.977294,15.09489 239.207777,32.93664 307.587957,-29.51901 68.38018,-62.45564 47.90214,-205.20141 14.41918,-255.90566 -33.48295,-50.70425 -79.96671,-9.36056 -108.62024,10.65364 -28.65354,20.0142 -39.47362,18.69639 -54.79604,8.31202 -15.32241,-10.38438 -35.1453,-29.83431 -59.189714,-21.53104 -24.044416,8.30326 -52.307197,44.35895 -77.881114,52.06279 -25.573918,7.70384 -48.456652,-12.94574 -66.09753,-39.37406 -17.640878,-26.42833 -30.038557,-58.63314 -46.574482,-65.80661 -16.53592,-7.17347 -37.208,10.6856 -55.2801,42.32291 -18.07211,31.6373 -33.542,77.04889 -56.00682,132.27147 -22.46483,55.22258 -51.92192,120.24962 -35.24837,143.0055 16.67355,22.75588 79.47673,3.23768 114.23621,-0.34794 z"
       id="path7398-5"
       sodipodi:nodetypes="cccccccccccccc"
       inkscape:original-d="m -106.60284,437.78403 c 6.7147,12.34726 13.428985,24.69399 20.143281,37.04097 157.24017,17.84308 314.470649,35.68483 471.710279,53.52738 -20.47902,-142.7541 -40.95706,-285.49987 -61.43661,-428.25454 -46.48633,41.34648 -92.97009,82.69017 -139.45697,124.03614 -10.82047,-1.31762 -21.64055,-2.63543 -32.46155,-3.95358 -19.8238,-19.45083 -39.64669,-38.90076 -59.471019,-58.35211 -28.26421,36.05811 -56.52699,72.1138 -84.7917404,108.1714 -22.8833896,-20.65014 -45.7661196,-41.29972 -68.6495696,-61.94996 -12.39816,-32.20647 -24.79584,-64.41128 -37.194518,-96.61828 -20.673053,17.8604 -41.345133,35.71947 -62.018723,53.57933 -15.47055,45.41457 -30.94044,90.82616 -46.41152,136.24019 -29.45857,65.03116 -58.91566,130.05821 -88.37477,195.08886 62.80599,-19.51873 125.60917,-39.03692 188.41343,-58.5558 z"
       inkscape:path-effect="#path-effect7400-3" />
    <path
       style="display:inline;fill:#00ffff;stroke:#000000;stroke-width:0.264583px;stroke-linecap:butt;stroke-linejoin:miter;stroke-opacity:1"
       d="m -61.072558,95.240892 c 22.185019,42.737678 48.886487,93.624498 75.734996,93.137788 26.848509,-0.48672 53.841425,-52.34573 83.273492,-55.34321 29.43207,-2.99748 61.30007,42.86654 89.11774,42.75255 27.81766,-0.11399 51.5815,-46.20572 85.87171,-47.98089 34.29021,-1.77516 79.10282,40.76632 115.89442,23.75099 36.7916,-17.01533 65.55821,-93.586616 73.95936,-136.460343 8.40116,-42.873728 -3.56316,-52.048403 -94.58883,-56.41244 -91.02567,-4.364037 -261.10591,-3.917253 -355.413584,0.991705 -94.307674,4.908957 -112.838696,14.279861 -113.270366,36.2595714 -0.43167,21.9797106 17.236043,56.5665986 39.421062,99.3042786 z"
       id="path75-7"
       sodipodi:nodetypes="ccccccccccc"
       inkscape:original-d="m -65.589459,87.090889 c 26.70202,50.887631 53.40349,101.774451 80.10585,152.663221 26.99487,-51.86199 53.98779,-103.72099 80.98176,-155.582792 31.869899,45.866632 63.737909,91.730652 95.607779,137.597472 23.76572,-46.0946 47.52955,-92.18633 71.29441,-138.280807 44.81524,42.543997 89.62785,85.085477 134.44316,127.629507 28.76822,-76.57458 57.53483,-153.145865 86.30156,-229.718442 -11.96451,-9.1753 -23.92884,-18.34996 -35.89364,-27.52455 -170.08676,0.44654 -340.167,0.89334 -510.250899,1.34038 -18.5315,9.37102 -37.062521,18.74192 -55.594181,28.11328 17.66869,34.588001 35.336401,69.174891 53.004201,103.762731 z"
       inkscape:path-effect="#path-effect77-1" />
    <path
       style="display:inline;fill:#00dada;fill-opacity:1;stroke:#000000;stroke-width:0.264583px;stroke-linecap:butt;stroke-linejoin:miter;stroke-opacity:1"
       d="M -86.62224,8.4567963 C -71.042311,67.56319 -29.79099,155.18484 -0.25872327,176.81174 29.273543,198.43864 47.083482,154.06987 69.751961,134.4875 92.42044,114.90513 119.94419,120.112 139.88488,134.37598 c 19.94069,14.26398 32.29591,37.5828 51.15022,34.40626 18.85431,-3.17654 44.20471,-32.84773 65.36718,-43.23917 21.16246,-10.39144 38.13435,-1.50172 63.63219,8.75777 25.49783,10.25948 59.51931,21.8879 85.43747,10.01862 25.91816,-11.86927 43.72977,-47.234512 50.98385,-79.913336 7.25408,-32.678823 3.94988,-62.6680036 -0.70073,-91.592143 -4.65061,-28.924139 -10.64755,-56.782669 -100.50233,-70.71183 C 265.39795,-111.82701 91.691991,-111.82701 -0.20905143,-96.532429 -92.110094,-81.237847 -102.20217,-50.649597 -86.62224,8.4567963 Z"
       id="path191-0"
       sodipodi:nodetypes="ccccccccccccc"
       inkscape:original-d="M -112.29455,-20.060412 C -71.042197,67.563136 -29.790876,155.18479 11.462296,242.81067 29.273864,198.43877 47.083802,154.07 64.894711,109.69789 c 27.52569,5.20745 55.049439,10.41432 82.574559,15.62123 12.35639,23.32079 24.71162,46.63961 37.06766,69.9602 25.35276,-29.67338 50.70317,-59.34457 76.05493,-89.01793 16.97283,8.89034 33.94472,17.78006 50.91694,26.66983 34.02345,11.62926 68.04493,23.25767 102.06848,34.88662 17.81293,-35.3676 35.62453,-70.732841 53.43694,-106.099931 -3.30407,-29.990639 -6.60826,-59.9798207 -9.91279,-89.969341 -5.99668,-27.858791 -11.99362,-55.717321 -17.99082,-83.575578 -173.71266,-2.7e-4 -347.418619,-2.7e-4 -521.128329,0 -10.09221,30.589217 -20.184281,61.177468 -30.276831,91.766598 z"
       inkscape:path-effect="#path-effect193-9" />
    <path
       style="display:inline;fill:#00a6a6;fill-opacity:1;stroke:#000000;stroke-width:0.264583px;stroke-linecap:butt;stroke-linejoin:miter;stroke-opacity:1"
       d="m -6.013148,-157.50737 c 34.759479,3.58563 41.473765,-8.7611 123.451058,-23.85599 81.9773,-15.09489 239.20778,-32.93664 307.58796,29.519 68.38018,62.455646 47.90214,205.201417 12.51766,263.63643 -35.38449,58.43502 -85.67109,32.55191 -118.93291,17.68406 -33.26181,-14.86785 -49.49512,-18.71869 -69.54475,-6.96049 -20.04962,11.75819 -43.91211,39.12341 -59.11954,41.81674 -15.20742,2.69332 -21.75718,-19.28636 -40.44721,-34.0412 C 130.8091,115.53635 99.979977,108.00808 76.384468,121.83999 52.78896,135.6719 36.429369,170.8622 19.638104,175.98236 2.846838,181.10252 -14.373768,156.15142 -30.720025,120.96789 -47.066281,85.784359 -62.536176,40.372767 -85.000999,-14.84981 c -22.464821,-55.222577 -51.921911,-120.24963 -35.248361,-143.0055 16.67355,-22.75588 79.476733,-3.23768 114.236212,0.34794 z"
       id="path7398-9"
       sodipodi:nodetypes="cccccccccccccc"
       inkscape:original-d="m 22.031731,-141.57443 c 6.71469,-12.34726 13.42898,-24.69399 20.14328,-37.04097 157.240169,-17.84308 314.470649,-35.68483 471.710279,-53.52738 -20.47902,142.754097 -40.95706,285.499869 -61.43661,428.25454 -50.28969,-25.88457 -100.57629,-51.76768 -150.86596,-77.6525 -16.23396,-3.85079 -32.46727,-7.70163 -48.70193,-11.55299 -23.86426,27.36781 -47.72675,54.73303 -71.59171,82.1005 -6.55,-21.98112 -13.09976,-43.9608 -19.65015,-65.94198 C 130.80905,115.53654 99.979931,108.00827 69.149531,100.47949 52.78928,135.67205 36.429688,170.86235 20.06853,206.05519 2.8468924,181.10248 -14.373712,156.15138 -31.595409,131.19882 -47.065959,85.784249 -62.535859,40.372659 -78.006939,-5.0413717 -107.4655,-70.072533 -136.92259,-135.09958 -166.38169,-200.13023 c 62.80598,19.51873 125.609161,39.03692 188.413421,58.5558 z"
       inkscape:path-effect="#path-effect7400-2" />
    <path
       style="display:inline;fill:#009696;fill-opacity:1;stroke:#000000;stroke-width:0.264583px;stroke-linecap:butt;stroke-linejoin:miter;stroke-opacity:1"
       d="m -10.725427,-172.38052 c 34.75948,3.58563 41.473764,-8.7611 123.451057,-23.85599 81.9773,-15.09489 239.20778,-32.93664 307.58796,29.51901 68.38018,62.45564 47.90214,205.201407 16.02387,266.88326 -31.87827,61.68185 -75.15291,42.29201 -106.51108,27.94406 -31.35817,-14.34794 -50.79633,-23.65239 -74.23243,-13.50672 -23.4361,10.14567 -50.86615,39.73971 -64.60026,44.11259 -13.7341,4.37288 -13.76975,-16.47676 -31.65581,-32.0935 C 141.45181,111.00545 105.7162,100.62329 79.018682,114.40362 52.321164,128.18396 34.664317,166.12494 17.603535,170.50987 0.54275251,174.89479 -15.919132,145.7233 -31.27835,108.45514 -46.637567,71.186986 -60.891228,25.828896 -84.010345,-29.431245 -107.12946,-84.691386 -139.1108,-149.84551 -123.69944,-172.66492 c 15.41136,-22.81942 78.214533,-3.30122 112.974013,0.2844 z"
       id="path7398-5-3"
       sodipodi:nodetypes="cccccccccccccc"
       inkscape:original-d="m 17.319451,-156.44758 c 6.7147,-12.34726 13.42898,-24.69399 20.14328,-37.04097 157.240169,-17.84308 314.470649,-35.68483 471.710279,-53.52738 -20.47902,142.7541 -40.95706,285.499869 -61.43661,428.25454 -43.27727,-19.39087 -86.55191,-38.78072 -129.82924,-58.17192 -19.439,-9.3047 -38.87717,-18.60914 -58.31691,-27.914476 -27.43212,29.596816 -54.86218,59.190846 -82.29502,88.787336 -0.0354,-20.85098 -0.071,-41.70062 -0.10693,-62.55168 C 141.45176,111.00562 105.71615,100.62346 69.979079,90.240686 52.321484,128.18411 34.664634,166.12509 17.006099,204.06887 0.54284106,174.89474 -15.919044,145.72325 -32.382761,116.54872 -46.637402,71.186934 -60.891063,25.828844 -75.146176,-19.533288 -107.12935,-84.691441 -139.11069,-149.84556 -171.09397,-215.00338 c 62.80599,19.51873 125.609161,39.03692 188.413421,58.5558 z"
       inkscape:path-effect="#path-effect7400-3-6" />
    <path
       style="display:inline;fill:#008787;fill-opacity:1;stroke:#000000;stroke-width:0.287796px;stroke-linecap:butt;stroke-linejoin:miter;stroke-opacity:1"
       d="m -123.66922,145.62517 c -21.4157,13.68494 -45.43891,68.65714 -34.77189,98.15991 10.66702,29.50276 56.0221,33.53606 77.437492,19.85087 21.415395,-13.68518 18.890601,-45.08743 8.224108,-74.59077 -10.666493,-29.50333 -29.47401,-57.10496 -50.88971,-43.42001 z"
       id="path7169"
       inkscape:original-d="m -121.06162,104.33773 c -24.02298,54.97252 -48.04619,109.94472 -72.06966,164.91663 45.35716,4.03377 90.71224,8.06707 136.06797,12.10013 -2.524671,-31.40374 -5.049464,-62.80599 -7.574665,-94.21026 -18.807972,-27.60242 -37.615485,-55.20405 -56.423645,-82.8065 z"
       inkscape:path-effect="#path-effect7171"
       sodipodi:nodetypes="ccccc"
       inkscape:export-filename="/home/ogyun/Documents/site/cj1063-s-websites-testing/assets/Wallpapers/Wallpaper-32-Mobile.png"
       inkscape:export-xdpi="96"
       inkscape:export-ydpi="96" />
    <path
       style="display:inline;fill:#008787;fill-opacity:1;stroke:#000000;stroke-width:0.344122px;stroke-linecap:butt;stroke-linejoin:miter;stroke-opacity:1"
       d="M 21.281034,162.43442 C 46.598987,152.0962 73.828176,73.271506 60.782818,26.636725 47.73746,-19.998056 -5.5823207,-34.435625 -30.8997,-24.097452 -56.217079,-13.759278 -53.531355,21.35373 -40.48595,67.987822 -27.440546,114.62192 -4.0369195,172.77264 21.281034,162.43442 Z"
       id="path7169-0"
       sodipodi:nodetypes="ccccc"
       inkscape:export-filename="/home/ogyun/Documents/site/cj1063-s-websites-testing/assets/Wallpapers/Wallpaper-32-Mobile.png"
       inkscape:export-xdpi="96"
       inkscape:export-ydpi="96"
       inkscape:original-d="M 19.367909,230.92636 C 46.599306,152.09631 73.828494,73.271616 101.05966,-5.5598317 47.737411,-19.997875 -5.5823694,-34.435445 -58.902889,-48.873407 c 2.686053,35.11411 5.371777,70.227118 8.057336,105.341162 23.405144,58.154105 46.8087674,116.304835 70.213462,174.458605 z"
       inkscape:path-effect="#path-effect7171-6" />
    <path
       style="display:inline;fill:#007d7d;fill-opacity:1;stroke:#000000;stroke-width:0.264583px;stroke-linecap:butt;stroke-linejoin:miter;stroke-opacity:1"
       d="M 249.37216,228.20496 C 169.58281,239.4611 53.788863,271.36045 51.631657,299.07388 49.474451,326.7873 160.94938,350.31375 240.739,339.05706 320.52862,327.80037 368.62908,281.76197 370.78717,254.04878 372.94526,226.33559 329.1615,216.94882 249.37216,228.20496 Z"
       id="path10421"
       inkscape:original-d="M 285.37657,207.5618 C 169.5829,239.46142 53.788951,271.36077 -62.005259,303.25985 49.474411,326.78749 160.94934,350.31395 272.42625,373.8406 320.52888,327.80064 368.62933,281.76224 416.73048,235.72267 372.94522,226.33579 329.16146,216.94902 285.37657,207.5618 Z"
       inkscape:path-effect="#path-effect10423" />
    <path
       style="display:inline;fill:#007d7d;fill-opacity:1;stroke:#000000;stroke-width:0.264583px;stroke-linecap:butt;stroke-linejoin:miter;stroke-opacity:1"
       d="M 324.53026,14.841767 C 260.9674,2.5471496 154.68491,36.412167 152.93261,60.718726 c -1.7523,24.306558 101.02355,39.052327 164.58771,51.347054 63.56416,12.29473 87.90903,22.13686 89.6613,-2.16957 1.75226,-24.306422 -19.0885,-82.759825 -82.65136,-95.054443 z"
       id="path12708"
       sodipodi:nodetypes="ccccc"
       inkscape:original-d="M 367.25184,-31.31849 C 260.9675,2.5474663 154.68501,36.412483 48.398011,70.27859 151.18028,85.025506 253.95613,99.771274 356.73785,114.51766 c 24.34658,9.84298 48.69145,19.68511 73.03751,29.52757 C 408.93403,85.589733 388.09327,27.136332 367.25184,-31.31849 Z"
       inkscape:path-effect="#path-effect12712" />
    <path
       style="fill:#00ffff;stroke:#000000;stroke-width:0.264583px;stroke-linecap:butt;stroke-linejoin:miter;stroke-opacity:1"
       d="m -168.64173,43.216537 c 13.66535,-9.836921 41.28177,-9.836921 55.08985,1.94e-4 13.808083,9.837115 13.808083,29.510296 0.14273,39.34695 -13.66536,9.836654 -40.99525,9.836654 -54.8036,-1.96e-4 -13.80834,-9.836849 -14.09433,-29.510027 -0.42898,-39.346948 z"
       id="path14940"
       inkscape:original-d="m -182.59307,33.379616 c 27.61669,2.65e-4 55.23311,2.65e-4 82.849273,0 2.64e-4,19.67423 2.64e-4,39.347411 0,59.020719 -27.330713,2.64e-4 -54.660603,2.64e-4 -81.991303,0 -0.28573,-19.673703 -0.57171,-39.346881 -0.85797,-59.020719 z"
       inkscape:path-effect="#path-effect14942" />
  </g>
</svg>
