<?xml version="1.0" encoding="UTF-8" standalone="no"?>
<!-- Created with Inkscape (http://www.inkscape.org/) -->

<svg
   width="480"
   height="1080"
   viewBox="0 0 127 285.75"
   version="1.1"
   id="svg5"
   inkscape:export-filename="/home/ogyun/Documents/site/cj1063-s-websites-testing/assets/Wallpapers/Wallpaper-35-Mobile.png"
   inkscape:export-xdpi="96"
   inkscape:export-ydpi="96"
   inkscape:version="1.1.2 (0a00cf5339, 2022-02-04)"
   sodipodi:docname="Wallpaper-35-Mobile-Asset.svg"
   xmlns:inkscape="http://www.inkscape.org/namespaces/inkscape"
   xmlns:sodipodi="http://sodipodi.sourceforge.net/DTD/sodipodi-0.dtd"
   xmlns="http://www.w3.org/2000/svg"
   xmlns:svg="http://www.w3.org/2000/svg">
  <sodipodi:namedview
     id="namedview7"
     pagecolor="#505050"
     bordercolor="#eeeeee"
     borderopacity="1"
     inkscape:pageshadow="0"
     inkscape:pageopacity="0"
     inkscape:pagecheckerboard="0"
     inkscape:document-units="mm"
     showgrid="false"
     units="px"
     inkscape:snap-bbox="true"
     inkscape:bbox-paths="true"
     inkscape:bbox-nodes="true"
     inkscape:snap-bbox-midpoints="true"
     inkscape:snap-bbox-edge-midpoints="true"
     inkscape:object-paths="true"
     inkscape:snap-intersection-paths="true"
     inkscape:snap-smooth-nodes="true"
     inkscape:snap-midpoints="true"
     inkscape:snap-object-midpoints="true"
     inkscape:snap-center="true"
     inkscape:snap-text-baseline="true"
     inkscape:snap-page="true"
     inkscape:snap-global="false"
     inkscape:zoom="0.37638538"
     inkscape:cx="33.210642"
     inkscape:cy="538.01239"
     inkscape:window-width="1920"
     inkscape:window-height="1021"
     inkscape:window-x="1366"
     inkscape:window-y="27"
     inkscape:window-maximized="1"
     inkscape:current-layer="layer1"
     width="480px" />
  <defs
     id="defs2">
    <inkscape:path-effect
       effect="bspline"
       id="path-effect2082"
       is_visible="true"
       lpeversion="1"
       weight="33.333333"
       steps="2"
       helper_size="0"
       apply_no_weight="true"
       apply_with_weight="true"
       only_selected="false" />
    <inkscape:path-effect
       effect="bspline"
       id="path-effect2076"
       is_visible="true"
       lpeversion="1"
       weight="33.333333"
       steps="2"
       helper_size="0"
       apply_no_weight="true"
       apply_with_weight="true"
       only_selected="false" />
    <inkscape:path-effect
       effect="bspline"
       id="path-effect2070"
       is_visible="true"
       lpeversion="1"
       weight="33.333333"
       steps="2"
       helper_size="0"
       apply_no_weight="true"
       apply_with_weight="true"
       only_selected="false" />
    <inkscape:path-effect
       effect="bspline"
       id="path-effect2064"
       is_visible="true"
       lpeversion="1"
       weight="33.333333"
       steps="2"
       helper_size="0"
       apply_no_weight="true"
       apply_with_weight="true"
       only_selected="false" />
    <inkscape:path-effect
       effect="bspline"
       id="path-effect2058"
       is_visible="true"
       lpeversion="1"
       weight="33.333333"
       steps="2"
       helper_size="0"
       apply_no_weight="true"
       apply_with_weight="true"
       only_selected="false" />
    <inkscape:path-effect
       effect="bspline"
       id="path-effect2052"
       is_visible="true"
       lpeversion="1"
       weight="33.333333"
       steps="2"
       helper_size="0"
       apply_no_weight="true"
       apply_with_weight="true"
       only_selected="false" />
    <inkscape:path-effect
       effect="bspline"
       id="path-effect2046"
       is_visible="true"
       lpeversion="1"
       weight="33.333333"
       steps="2"
       helper_size="0"
       apply_no_weight="true"
       apply_with_weight="true"
       only_selected="false" />
    <inkscape:path-effect
       effect="bspline"
       id="path-effect1878"
       is_visible="true"
       lpeversion="1"
       weight="33.333333"
       steps="2"
       helper_size="0"
       apply_no_weight="true"
       apply_with_weight="true"
       only_selected="false" />
    <inkscape:path-effect
       effect="bspline"
       id="path-effect1872"
       is_visible="true"
       lpeversion="1"
       weight="33.333333"
       steps="2"
       helper_size="0"
       apply_no_weight="true"
       apply_with_weight="true"
       only_selected="false" />
    <inkscape:path-effect
       effect="bspline"
       id="path-effect1866"
       is_visible="true"
       lpeversion="1"
       weight="33.333333"
       steps="2"
       helper_size="0"
       apply_no_weight="true"
       apply_with_weight="true"
       only_selected="false" />
    <inkscape:path-effect
       effect="bspline"
       id="path-effect1860"
       is_visible="true"
       lpeversion="1"
       weight="33.333333"
       steps="2"
       helper_size="0"
       apply_no_weight="true"
       apply_with_weight="true"
       only_selected="false" />
    <inkscape:path-effect
       effect="bspline"
       id="path-effect1854"
       is_visible="true"
       lpeversion="1"
       weight="33.333333"
       steps="2"
       helper_size="0"
       apply_no_weight="true"
       apply_with_weight="true"
       only_selected="false" />
    <inkscape:path-effect
       effect="bspline"
       id="path-effect1848"
       is_visible="true"
       lpeversion="1"
       weight="33.333333"
       steps="2"
       helper_size="0"
       apply_no_weight="true"
       apply_with_weight="true"
       only_selected="false" />
    <inkscape:path-effect
       effect="bspline"
       id="path-effect1842"
       is_visible="true"
       lpeversion="1"
       weight="33.333333"
       steps="2"
       helper_size="0"
       apply_no_weight="true"
       apply_with_weight="true"
       only_selected="false" />
    <inkscape:path-effect
       effect="bspline"
       id="path-effect1127"
       is_visible="true"
       lpeversion="1"
       weight="33.333333"
       steps="2"
       helper_size="0"
       apply_no_weight="true"
       apply_with_weight="true"
       only_selected="false" />
    <inkscape:path-effect
       effect="bspline"
       id="path-effect1121"
       is_visible="true"
       lpeversion="1"
       weight="33.333333"
       steps="2"
       helper_size="0"
       apply_no_weight="true"
       apply_with_weight="true"
       only_selected="false" />
    <inkscape:path-effect
       effect="bspline"
       id="path-effect1115"
       is_visible="true"
       lpeversion="1"
       weight="33.333333"
       steps="2"
       helper_size="0"
       apply_no_weight="true"
       apply_with_weight="true"
       only_selected="false" />
    <inkscape:path-effect
       effect="bspline"
       id="path-effect1109"
       is_visible="true"
       lpeversion="1"
       weight="33.333333"
       steps="2"
       helper_size="0"
       apply_no_weight="true"
       apply_with_weight="true"
       only_selected="false" />
    <inkscape:path-effect
       effect="bspline"
       id="path-effect1103"
       is_visible="true"
       lpeversion="1"
       weight="33.333333"
       steps="2"
       helper_size="0"
       apply_no_weight="true"
       apply_with_weight="true"
       only_selected="false" />
    <inkscape:path-effect
       effect="bspline"
       id="path-effect1097"
       is_visible="true"
       lpeversion="1"
       weight="33.333333"
       steps="2"
       helper_size="0"
       apply_no_weight="true"
       apply_with_weight="true"
       only_selected="false" />
    <inkscape:path-effect
       effect="bspline"
       id="path-effect1091"
       is_visible="true"
       lpeversion="1"
       weight="33.333333"
       steps="2"
       helper_size="0"
       apply_no_weight="true"
       apply_with_weight="true"
       only_selected="false" />
    <inkscape:path-effect
       effect="bspline"
       id="path-effect967"
       is_visible="true"
       lpeversion="1"
       weight="33.333333"
       steps="2"
       helper_size="0"
       apply_no_weight="true"
       apply_with_weight="true"
       only_selected="false" />
    <inkscape:path-effect
       effect="bspline"
       id="path-effect961"
       is_visible="true"
       lpeversion="1"
       weight="33.333333"
       steps="2"
       helper_size="0"
       apply_no_weight="true"
       apply_with_weight="true"
       only_selected="false" />
    <inkscape:path-effect
       effect="bspline"
       id="path-effect955"
       is_visible="true"
       lpeversion="1"
       weight="33.333333"
       steps="2"
       helper_size="0"
       apply_no_weight="true"
       apply_with_weight="true"
       only_selected="false" />
    <inkscape:path-effect
       effect="bspline"
       id="path-effect949"
       is_visible="true"
       lpeversion="1"
       weight="33.333333"
       steps="2"
       helper_size="0"
       apply_no_weight="true"
       apply_with_weight="true"
       only_selected="false" />
    <inkscape:path-effect
       effect="bspline"
       id="path-effect943"
       is_visible="true"
       lpeversion="1"
       weight="33.333333"
       steps="2"
       helper_size="0"
       apply_no_weight="true"
       apply_with_weight="true"
       only_selected="false" />
    <inkscape:path-effect
       effect="bspline"
       id="path-effect661"
       is_visible="true"
       lpeversion="1"
       weight="33.333333"
       steps="2"
       helper_size="0"
       apply_no_weight="true"
       apply_with_weight="true"
       only_selected="false" />
    <inkscape:path-effect
       effect="bspline"
       id="path-effect68"
       is_visible="true"
       lpeversion="1"
       weight="33.333333"
       steps="2"
       helper_size="0"
       apply_no_weight="true"
       apply_with_weight="true"
       only_selected="false" />
    <inkscape:path-effect
       effect="bspline"
       id="path-effect661-3"
       is_visible="true"
       lpeversion="1"
       weight="33.333333"
       steps="2"
       helper_size="0"
       apply_no_weight="true"
       apply_with_weight="true"
       only_selected="false" />
    <inkscape:path-effect
       effect="bspline"
       id="path-effect661-3-7"
       is_visible="true"
       lpeversion="1"
       weight="33.333333"
       steps="2"
       helper_size="0"
       apply_no_weight="true"
       apply_with_weight="true"
       only_selected="false" />
  </defs>
  <g
     inkscape:label="Layer 1"
     inkscape:groupmode="layer"
     id="layer1"
     style="opacity:1">
    <rect
       style="fill:#442178;stroke:#000000;stroke-width:0.163501;stroke-linecap:round;stroke-linejoin:round"
       id="rect31"
       width="127"
       height="285.75"
       x="-0.081750251"
       y="-0.081750251" />
    <path
       style="fill:#8d5fd3;stroke:#000000;stroke-width:0.181351px;stroke-linecap:butt;stroke-linejoin:miter;stroke-opacity:1"
       d="m -39.78878,169.07124 c 20.984061,1.17855 47.0172852,4.99108 60.18232,15.63244 13.165034,10.64136 13.462057,28.1107 24.493775,39.33782 11.031717,11.22711 32.79704,16.2116 56.948665,18.70387 24.15162,2.49227 50.68808,2.49227 65.11079,6.80023 14.42272,4.30795 16.73119,12.9233 17.88543,19.61129 1.15423,6.68799 1.15423,11.44827 -47.52718,16.12088 -48.681401,4.67262 -146.0425817,9.25757 -192.481801,-9.83635 -46.439219,-19.09391 -41.952632,-61.86532 -31.741612,-83.9793 10.21102,-22.11398 26.145551,-23.56943 47.129613,-22.39088 z"
       id="path1838"
       inkscape:path-effect="#path-effect1842"
       inkscape:original-d="m -44.838145,166.43722 c 26.033402,3.81273 52.0666271,7.62526 78.099681,11.43761 0.29722,17.47021 0.594237,34.93955 0.891087,52.40904 21.766379,4.98487 43.531702,9.96936 65.297285,14.95377 26.537692,1.8e-4 53.074152,1.8e-4 79.610952,0 2.30875,8.61588 4.61722,17.23123 6.92557,25.84657 1.8e-4,4.76067 1.8e-4,9.52095 0,14.28115 -97.362802,4.58522 -194.7239827,9.17017 -292.08918,13.75512 4.48695,-42.77295 8.973537,-85.54436 13.460032,-128.31682 15.935363,-1.45533 31.869895,-2.91077 47.804573,-4.36644 z"
       sodipodi:nodetypes="cccccccccc" />
    <path
       style="opacity:0.5;fill:#5a2ca0;stroke:#000000;stroke-width:0.181351px;stroke-linecap:butt;stroke-linejoin:miter;stroke-opacity:1"
       d="m -47.114988,178.013 c 20.984062,1.17856 47.01728603,4.99109 60.182317,15.63245 13.165031,10.64136 13.462057,28.11068 24.493771,39.3378 11.031714,11.22712 32.797038,16.21161 56.948664,18.70388 24.151626,2.49227 50.688076,2.49227 65.110796,6.80023 14.42271,4.30795 16.7312,12.9233 17.88543,19.61129 1.15424,6.68799 1.15424,11.44827 -47.52717,16.12088 -48.681416,4.67262 -146.04261,9.25757 -192.481819,-9.83634 -46.439211,-19.09392 -41.952621,-61.86533 -31.741607,-83.97931 10.211015,-22.11398 26.145557,-23.56943 47.129618,-22.39088 z"
       id="path1844"
       inkscape:path-effect="#path-effect1848"
       inkscape:original-d="m -52.164363,175.37899 c 26.033413,3.81273 52.06663813,7.62526 78.099681,11.43761 0.29722,17.47021 0.594249,34.93953 0.891098,52.40903 21.766367,4.98487 43.531691,9.96936 65.297282,14.95377 26.537692,1.7e-4 53.074142,1.7e-4 79.610942,0 2.30876,8.61588 4.61724,17.23123 6.92559,25.84657 1.8e-4,4.76067 1.8e-4,9.52095 0,14.28115 -97.362817,4.58522 -194.724011,9.17017 -292.08919,13.75512 4.48694,-42.77295 8.97353,-85.54436 13.460035,-128.31682 15.935352,-1.45532 31.869895,-2.91076 47.804562,-4.36643 z"
       sodipodi:nodetypes="cccccccccc" />
    <path
       style="opacity:0.5;fill:#5a2ca0;stroke:#000000;stroke-width:0.181351px;stroke-linecap:butt;stroke-linejoin:miter;stroke-opacity:1"
       d="m -57.26435,184.78792 c 20.984062,1.17855 47.017282,4.99109 60.1823148,15.63244 13.1650322,10.64135 13.4620592,28.11069 24.4937732,39.33781 11.031713,11.22711 32.797051,16.2116 56.948672,18.70386 24.15162,2.49227 50.68808,2.49227 65.11079,6.80023 14.42272,4.30795 16.7312,12.92332 17.88544,19.61131 1.15423,6.68799 1.15423,11.44827 -47.52718,16.12088 -48.681407,4.67262 -146.042601,9.25756 -192.481815,-9.83635 -46.439215,-19.09392 -41.952625,-61.86532 -31.741615,-83.9793 10.211016,-22.11398 26.145559,-23.56943 47.12962,-22.39088 z"
       id="path1850"
       inkscape:path-effect="#path-effect1854"
       inkscape:original-d="m -62.313713,182.1539 c 26.033401,3.81273 52.066623,7.62526 78.099669,11.43762 0.29722,17.47019 0.594249,34.93953 0.891098,52.40903 21.766367,4.98486 43.531702,9.96936 65.297284,14.95375 26.537692,1.9e-4 53.074152,1.9e-4 79.610952,0 2.30875,8.61588 4.61723,17.23125 6.92558,25.84659 1.7e-4,4.76067 1.7e-4,9.52095 0,14.28115 -97.362808,4.58521 -194.724002,9.17016 -292.08919,13.75511 4.48694,-42.77295 8.97354,-85.54435 13.46003,-128.31681 15.935355,-1.45532 31.869898,-2.91077 47.804577,-4.36644 z"
       sodipodi:nodetypes="cccccccccc" />
    <path
       style="opacity:0.5;fill:#5a2ca0;stroke:#000000;stroke-width:0.181351px;stroke-linecap:butt;stroke-linejoin:miter;stroke-opacity:1"
       d="m -67.667028,191.48892 c 20.984061,1.17855 47.017283,4.99108 60.1823149,15.63244 13.1650318,10.64135 13.4620586,28.11068 24.4937771,39.3378 11.031719,11.22711 32.797046,16.2116 56.948665,18.70387 24.151619,2.49227 50.688081,2.49227 65.110801,6.80023 14.42271,4.30795 16.7312,12.9233 17.88543,19.61129 1.15424,6.68799 1.15424,11.44828 -47.52717,16.12089 -48.681415,4.67262 -146.042609,9.25757 -192.481819,-9.83635 -46.439211,-19.09392 -41.952621,-61.86532 -31.741611,-83.9793 10.21102,-22.11397 26.145551,-23.56942 47.129612,-22.39087 z"
       id="path1856"
       inkscape:path-effect="#path-effect1860"
       inkscape:original-d="m -72.716392,188.8549 c 26.033402,3.81272 52.066624,7.62526 78.0996691,11.43761 0.29722,17.4702 0.594249,34.93953 0.891098,52.40903 21.7663789,4.98486 43.5317029,9.96936 65.2972849,14.95376 26.537688,1.8e-4 53.07415,1.8e-4 79.61095,0 2.30876,8.61588 4.61724,17.23123 6.92559,25.84658 1.7e-4,4.76066 1.7e-4,9.52095 0,14.28115 -97.362816,4.58522 -194.724011,9.17016 -292.08919,13.75512 4.48694,-42.77296 8.97353,-85.54436 13.46003,-128.31681 15.93536,-1.45533 31.86989,-2.91077 47.804568,-4.36644 z"
       sodipodi:nodetypes="cccccccccc" />
    <path
       style="opacity:0.5;fill:#5a2ca0;stroke:#000000;stroke-width:0.181351px;stroke-linecap:butt;stroke-linejoin:miter;stroke-opacity:1"
       d="m -80.614266,197.3779 c 20.984061,1.17855 47.017284,4.99109 60.182314,15.63244 13.1650307,10.64135 13.4620577,28.11069 24.4937739,39.3378 11.0317161,11.22711 32.7970501,16.2116 56.9486681,18.70386 24.151618,2.49227 50.68808,2.49227 65.11079,6.80023 14.42271,4.30796 16.7312,12.92332 17.88543,19.61131 1.15424,6.68799 1.15424,11.44827 -47.527166,16.12088 -48.681406,4.67261 -146.042601,9.25756 -192.481816,-9.83635 -46.439218,-19.09391 -41.952628,-61.86532 -31.741608,-83.9793 10.21102,-22.11398 26.14555,-23.56942 47.129614,-22.39087 z"
       id="path1862"
       inkscape:path-effect="#path-effect1866"
       inkscape:original-d="m -85.663629,194.74389 c 26.033402,3.81271 52.066624,7.62525 78.0996661,11.4376 0.297219,17.4702 0.594248,34.93954 0.891098,52.40903 21.7663709,4.98487 43.5317059,9.96935 65.2972879,14.95375 26.537685,2e-4 53.074147,2e-4 79.610937,0 2.30877,8.61588 4.61724,17.23125 6.92559,25.84659 1.8e-4,4.76067 1.8e-4,9.52095 0,14.28115 -97.362803,4.58522 -194.723998,9.17017 -292.08919,13.75511 4.48695,-42.77294 8.97353,-85.54435 13.46004,-128.31681 15.93536,-1.45532 31.86989,-2.91077 47.804571,-4.36642 z"
       sodipodi:nodetypes="cccccccccc" />
    <path
       style="opacity:0.5;fill:#5a2ca0;stroke:#000000;stroke-width:0.181351px;stroke-linecap:butt;stroke-linejoin:miter;stroke-opacity:1"
       d="m -92.554255,204.01873 c 20.984064,1.17855 47.017285,4.99108 60.182315,15.63244 13.165031,10.64136 13.462057,28.11068 24.4937738,39.3378 11.0317164,11.22711 32.7970522,16.2116 56.9486712,18.70386 24.151618,2.49227 50.688073,2.49227 65.110795,6.80023 14.42271,4.30796 16.73119,12.92332 17.88543,19.61131 1.15423,6.68799 1.15423,11.44827 -47.527175,16.12088 -48.681405,4.67262 -146.0426,9.25757 -192.481815,-9.83635 -46.43921,-19.09392 -41.95262,-61.86532 -31.74161,-83.9793 10.21102,-22.11397 26.14555,-23.56942 47.129615,-22.39087 z"
       id="path1868"
       inkscape:path-effect="#path-effect1872"
       inkscape:original-d="m -97.603617,201.38471 c 26.033402,3.81273 52.066624,7.62526 78.099666,11.43761 0.29722,17.47021 0.594249,34.93953 0.891098,52.40903 21.7663711,4.98487 43.531706,9.96936 65.297288,14.95375 26.537688,1.9e-4 53.074143,1.9e-4 79.610945,0 2.30876,8.61589 4.61723,17.23125 6.92558,25.84659 1.8e-4,4.76067 1.8e-4,9.52095 0,14.28115 -97.362801,4.58522 -194.723996,9.17017 -292.08918,13.75512 4.48694,-42.77296 8.97353,-85.54436 13.46003,-128.31681 15.93536,-1.45533 31.86989,-2.91077 47.804573,-4.36644 z"
       sodipodi:nodetypes="cccccccccc" />
    <path
       style="opacity:0.35;fill:#442178;stroke:#000000;stroke-width:0.181351px;stroke-linecap:butt;stroke-linejoin:miter;stroke-opacity:1"
       d="m -103.79978,209.737 c 20.984058,1.17856 47.017281,4.99109 60.18231,15.63244 13.165028,10.64135 13.462051,28.11069 24.493774,39.33781 11.0317222,11.22711 32.797053,16.2116 56.948677,18.70386 24.151625,2.49227 50.688067,2.49227 65.110789,6.80023 14.42272,4.30796 16.7312,12.92331 17.88544,19.6113 1.15423,6.68799 1.15423,11.44828 -47.52718,16.12089 -48.681409,4.67262 -146.042602,9.25757 -192.48181,-9.83635 -46.43921,-19.09392 -41.95262,-61.86532 -31.74161,-83.9793 10.21101,-22.11398 26.14556,-23.56943 47.12961,-22.39088 z"
       id="path1874"
       inkscape:path-effect="#path-effect1878"
       inkscape:original-d="m -108.84915,207.10299 c 26.033406,3.81272 52.066628,7.62526 78.099671,11.43761 0.297219,17.47019 0.594237,34.93953 0.891086,52.40903 21.7663901,4.98486 43.531717,9.96936 65.297299,14.95375 26.5377,1.9e-4 53.074142,1.9e-4 79.610954,0 2.30876,8.61589 4.61723,17.23124 6.92558,25.84659 1.7e-4,4.76066 1.7e-4,9.52095 0,14.28115 -97.36281,4.58522 -194.724004,9.17016 -292.08918,13.75512 4.48694,-42.77296 8.97353,-85.54436 13.46003,-128.31682 15.93535,-1.45532 31.8699,-2.91076 47.80456,-4.36643 z"
       sodipodi:nodetypes="cccccccccc" />
    <path
       style="fill:#8d5fd3;stroke:#000000;stroke-width:0.181351px;stroke-linecap:butt;stroke-linejoin:miter;stroke-opacity:1"
       d="M 166.70703,116.59699 C 145.72297,115.41844 119.68974,111.60591 106.5247,100.96455 93.359665,90.323184 93.062642,72.853844 82.030924,61.626733 70.999206,50.399623 49.233883,45.415133 25.082261,42.922862 0.93063866,40.430591 -25.605819,40.430591 -40.028533,36.122635 -54.451247,31.814678 -56.759723,23.19933 -57.913956,16.511341 -59.068189,9.823352 -59.068189,5.0630717 -10.386785,0.39045778 38.294619,-4.2821561 135.65581,-8.8671079 182.09503,10.226807 c 46.43922,19.093915 41.95263,61.865321 31.74161,83.979305 -10.21102,22.113978 -26.14555,23.569428 -47.12961,22.390878 z"
       id="path2042"
       inkscape:path-effect="#path-effect2046"
       inkscape:original-d="m 171.75639,119.23101 c -26.0334,-3.81273 -52.06663,-7.62526 -78.099687,-11.43761 -0.29722,-17.470213 -0.594237,-34.939553 -0.891087,-52.409039 -21.76638,-4.98487 -43.531703,-9.96936 -65.297286,-14.95377 -26.53769134,-1.8e-4 -53.074149,-1.8e-4 -79.610949,0 -2.30875,-8.61588 -4.61722,-17.23123 -6.92557,-25.84657 -1.8e-4,-4.760669 -1.8e-4,-9.5209493 0,-14.28114921 C 38.29461,-4.2823485 135.6558,-8.8672985 233.021,-13.452248 c -4.48695,42.772949 -8.97354,85.544355 -13.46003,128.316818 -15.93537,1.45533 -31.8699,2.91077 -47.80458,4.36644 z"
       sodipodi:nodetypes="cccccccccc" />
    <path
       style="opacity:0.5;fill:#5a2ca0;stroke:#000000;stroke-width:0.181351px;stroke-linecap:butt;stroke-linejoin:miter;stroke-opacity:1"
       d="M 174.03323,107.65522 C 153.04917,106.47667 127.01595,102.66413 113.85092,92.022774 100.68589,81.381414 100.38886,63.912094 89.357142,52.684979 78.325425,41.457864 56.5601,36.473375 32.408475,33.981103 8.2568488,31.488831 -18.279599,31.488831 -32.702316,27.180874 -47.125034,22.872917 -49.433517,14.257568 -50.587753,7.5695801 -51.741989,0.88159179 -51.741989,-3.8786885 -3.0605775,-8.5513029 45.620834,-13.223917 142.98204,-17.80887 189.42125,1.2850454 235.86046,20.378961 231.37387,63.150367 221.16285,85.264349 210.95184,107.37833 195.01729,108.83378 174.03323,107.65522 Z"
       id="path2048"
       inkscape:path-effect="#path-effect2052"
       inkscape:original-d="m 179.08261,110.28924 c -26.03342,-3.81273 -52.06664,-7.62526 -78.09968,-11.437614 -0.29722,-17.470209 -0.59425,-34.939529 -0.8911,-52.409025 -21.766375,-4.98487 -43.531699,-9.96936 -65.29729,-14.95377 -26.5376912,-1.7e-4 -53.074139,-1.7e-4 -79.610939,0 -2.30876,-8.61588 -4.61724,-17.23123 -6.92559,-25.8465693 -1.8e-4,-4.76066991 -1.8e-4,-9.5209502 0,-14.2811502 97.362814,-4.5852195 194.724019,-9.1701705 292.089199,-13.7551205 -4.48694,42.77295 -8.97353,85.544356 -13.46004,128.316819 -15.93535,1.45532 -31.8699,2.91076 -47.80456,4.36643 z"
       sodipodi:nodetypes="cccccccccc" />
    <path
       style="opacity:0.5;fill:#5a2ca0;stroke:#000000;stroke-width:0.181351px;stroke-linecap:butt;stroke-linejoin:miter;stroke-opacity:1"
       d="M 184.1826,100.88031 C 163.19854,99.70176 137.16531,95.889218 124.00028,85.247866 110.83525,74.606514 110.53822,57.137174 99.506504,45.910063 88.474787,34.682951 66.709449,29.698465 42.557829,27.206198 18.406209,24.713931 -8.130249,24.713931 -22.552964,20.405975 -36.975678,16.098019 -39.284162,7.4826505 -40.438395,0.79466101 -41.592629,-5.8933285 -41.592629,-10.653608 7.0887779,-15.326221 55.770185,-19.998834 153.13139,-24.583783 199.5706,-5.4898659 246.00982,13.604051 241.52323,56.375448 231.31222,78.48943 221.1012,100.60341 205.16666,102.05886 184.1826,100.88031 Z"
       id="path2054"
       inkscape:path-effect="#path-effect2058"
       inkscape:original-d="m 189.23196,103.51433 c -26.0334,-3.812734 -52.06663,-7.625263 -78.09967,-11.437623 -0.29722,-17.47019 -0.59425,-34.93953 -0.8911,-52.409026 -21.766373,-4.98486 -43.531708,-9.96936 -65.29729,-14.95375 -26.537691,-1.9e-4 -53.074149,-1.9e-4 -79.610949,0 -2.30875,-8.61588 -4.61723,-17.231249 -6.92558,-25.8465895 -1.7e-4,-4.76067 -1.7e-4,-9.5209495 0,-14.2811505 97.362805,-4.58521 194.724009,-9.17016 292.089199,-13.75511 -4.48694,42.77295 -8.97354,85.544346 -13.46003,128.316805 -15.93536,1.455324 -31.8699,2.910774 -47.80458,4.366444 z"
       sodipodi:nodetypes="cccccccccc" />
    <path
       style="opacity:0.5;fill:#5a2ca0;stroke:#000000;stroke-width:0.181351px;stroke-linecap:butt;stroke-linejoin:miter;stroke-opacity:1"
       d="M 194.58527,94.17931 C 173.60121,93.000759 147.56799,89.188223 134.40296,78.546869 121.23793,67.905514 120.9409,50.436188 109.90918,39.209072 98.877456,27.981955 77.112128,22.997469 52.960509,20.5052 28.80889,18.012931 2.2724288,18.012931 -12.150287,13.704975 -26.573003,9.3970181 -28.881485,0.78166859 -30.035722,-5.9063197 c -1.154237,-6.6879883 -1.154237,-11.4482793 47.527174,-16.1208933 48.681411,-4.672614 146.042618,-9.257567 192.481828,9.836354 46.43921,19.0939208 41.95262,61.86532 31.74161,83.979295 -10.21102,22.113975 -26.14555,23.569425 -47.12962,22.390874 z"
       id="path2060"
       inkscape:path-effect="#path-effect2064"
       inkscape:original-d="m 199.63464,96.813326 c -26.03341,-3.812719 -52.06663,-7.625259 -78.09967,-11.437609 -0.29722,-17.4702 -0.59425,-34.939526 -0.8911,-52.409026 -21.766386,-4.98486 -43.53171,-9.96936 -65.297292,-14.95376 -26.537688,-1.8e-4 -53.0741492,-1.8e-4 -79.610947,0 -2.30876,-8.615879 -4.61724,-17.23122921 -6.92559,-25.8465795 -1.7e-4,-4.7606595 -1.7e-4,-9.5209505 0,-14.2811505 97.362813,-4.58522 194.724019,-9.17016 292.089199,-13.75512 -4.48694,42.772961 -8.97353,85.54436 -13.46003,128.316806 -15.93536,1.45533 -31.86989,2.91077 -47.80457,4.366439 z"
       sodipodi:nodetypes="cccccccccc" />
    <path
       style="opacity:0.5;fill:#5a2ca0;stroke:#000000;stroke-width:0.181351px;stroke-linecap:butt;stroke-linejoin:miter;stroke-opacity:1"
       d="M 207.53251,88.290326 C 186.54845,87.111773 160.51523,83.29924 147.3502,72.657887 134.18517,62.016534 133.88814,44.547198 122.85642,33.32009 111.82471,22.092982 90.059367,17.108496 65.907749,14.616228 41.75613,12.123961 15.219669,12.123961 0.79695832,7.8160031 -13.625752,3.5080453 -15.934238,-5.1073208 -17.088474,-11.79531 c -1.154235,-6.687989 -1.154235,-11.448269 47.52717,-16.120881 48.681404,-4.672613 146.042604,-9.257561 192.481824,9.836351 46.43922,19.0939125 41.95263,61.865321 31.74161,83.979298 -10.21102,22.113977 -26.14555,23.56942 -47.12962,22.390868 z"
       id="path2066"
       inkscape:path-effect="#path-effect2070"
       inkscape:original-d="m 212.58188,90.924337 c -26.03341,-3.81271 -52.06663,-7.62525 -78.09967,-11.4376 -0.29722,-17.4702 -0.59425,-34.939536 -0.8911,-52.409026 -21.76637,-4.98487 -43.531712,-9.96935 -65.297295,-14.95375 -26.537685,-2e-4 -53.074146,-2e-4 -79.610934,0 -2.30877,-8.6158791 -4.61724,-17.2312495 -6.92559,-25.84659 -1.8e-4,-4.76067 -1.8e-4,-9.52095 0,-14.28115 97.3628,-4.58522 194.723999,-9.17017 292.089199,-13.75511 -4.48695,42.7729408 -8.97353,85.54435 -13.46004,128.316806 -15.93536,1.45532 -31.86989,2.91077 -47.80457,4.36642 z"
       sodipodi:nodetypes="cccccccccc" />
    <path
       style="opacity:0.5;fill:#5a2ca0;stroke:#000000;stroke-width:0.181351px;stroke-linecap:butt;stroke-linejoin:miter;stroke-opacity:1"
       d="M 219.4725,81.649501 C 198.48844,80.47095 172.45522,76.658414 159.29019,66.017056 146.12516,55.375698 145.82813,37.906378 134.79641,26.679265 123.7647,15.452152 101.99936,10.467666 77.847736,7.975399 53.696115,5.4831317 27.15966,5.4831317 12.736944,1.1751697 -1.6857726,-3.1327923 -3.994252,-11.748149 -5.1484853,-18.436139 c -1.1542334,-6.68799 -1.1542334,-11.44827 47.5271703,-16.120884 48.681404,-4.672614 146.042605,-9.257566 192.481815,9.836354 46.43922,19.0939203 41.95263,61.86532 31.74162,83.979295 -10.21102,22.113975 -26.14555,23.569425 -47.12962,22.390875 z"
       id="path2072"
       inkscape:path-effect="#path-effect2076"
       inkscape:original-d="m 224.52186,84.283517 c -26.0334,-3.81273 -52.06662,-7.62526 -78.09966,-11.43761 -0.29722,-17.470206 -0.59425,-34.939526 -0.8911,-52.409026 -21.76637,-4.98487 -43.53171,-9.96936 -65.297297,-14.9537493 -26.537688,-1.9e-4 -53.074143,-1.9e-4 -79.61094434,0 C -1.6858987,-3.1327585 -3.9943687,-11.748118 -6.3027187,-20.363459 c -1.8e-4,-4.76067 -1.8e-4,-9.52095 0,-14.28115 97.3627987,-4.58522 194.7239987,-9.17017 292.0891887,-13.75512 -4.48694,42.7729605 -8.97353,85.54436 -13.46003,128.316806 -15.93536,1.45533 -31.86989,2.91077 -47.80458,4.36644 z"
       sodipodi:nodetypes="cccccccccc" />
    <path
       style="opacity:0.35;fill:#442178;stroke:#000000;stroke-width:0.181351px;stroke-linecap:butt;stroke-linejoin:miter;stroke-opacity:1"
       d="M 230.71802,75.931223 C 209.73397,74.75267 183.70075,70.940134 170.53572,60.298786 157.37068,49.657438 157.07366,32.188098 146.04194,20.960983 135.01022,9.7338689 113.24489,4.7493854 89.09326,2.2571184 64.941632,-0.23514861 38.40519,-0.23514861 23.982468,-4.5431107 9.5597467,-8.8510728 7.2512686,-17.466421 6.0970336,-24.15441 4.9427987,-30.842399 4.9427987,-35.602689 53.624214,-40.275304 c 48.681416,-4.672614 146.042606,-9.257566 192.481816,9.836355 46.43921,19.093921 41.95262,61.86532 31.74161,83.979298 -10.21101,22.113978 -26.14556,23.569427 -47.12962,22.390874 z"
       id="path2078"
       inkscape:path-effect="#path-effect2082"
       inkscape:original-d="M 235.7674,78.565237 C 209.73399,74.752517 183.70077,70.939977 157.66772,67.127627 157.3705,49.657441 157.07349,32.188101 156.77664,14.718601 135.01025,9.733742 113.24492,4.7492417 91.479333,-0.23514861 c -26.537701,-1.9e-4 -53.074143,-1.9e-4 -79.610954,0 C 9.5596188,-8.8510385 7.2511487,-17.466389 4.9427987,-26.081739 c -1.7e-4,-4.76066 -1.7e-4,-9.52095 0,-14.28115 97.3628213,-4.58522 194.7240113,-9.17016 292.0891913,-13.75512 -4.48694,42.772961 -8.97353,85.54436 -13.46003,128.316816 -15.93535,1.45532 -31.8699,2.91076 -47.80456,4.36643 z"
       sodipodi:nodetypes="cccccccccc" />
  </g>
</svg>
