<?xml version="1.0" encoding="UTF-8" standalone="no"?>
<!-- Created with Inkscape (http://www.inkscape.org/) -->

<svg
   width="1920"
   height="1080"
   viewBox="0 0 508 285.75"
   version="1.1"
   id="svg5"
   inkscape:version="1.1.2 (0a00cf5339, 2022-02-04)"
   sodipodi:docname="Wallpaper-37-Asset.svg"
   xmlns:inkscape="http://www.inkscape.org/namespaces/inkscape"
   xmlns:sodipodi="http://sodipodi.sourceforge.net/DTD/sodipodi-0.dtd"
   xmlns="http://www.w3.org/2000/svg"
   xmlns:svg="http://www.w3.org/2000/svg">
  <sodipodi:namedview
     id="namedview7"
     pagecolor="#505050"
     bordercolor="#eeeeee"
     borderopacity="1"
     inkscape:pageshadow="0"
     inkscape:pageopacity="0"
     inkscape:pagecheckerboard="0"
     inkscape:document-units="mm"
     showgrid="false"
     units="px"
     inkscape:snap-global="false"
     inkscape:snap-bbox="true"
     inkscape:bbox-paths="true"
     inkscape:bbox-nodes="true"
     inkscape:snap-bbox-edge-midpoints="true"
     inkscape:snap-bbox-midpoints="true"
     inkscape:object-paths="true"
     inkscape:snap-intersection-paths="true"
     inkscape:snap-smooth-nodes="true"
     inkscape:snap-midpoints="true"
     inkscape:snap-object-midpoints="true"
     inkscape:snap-center="true"
     inkscape:snap-text-baseline="true"
     inkscape:snap-page="true"
     inkscape:zoom="0.53228931"
     inkscape:cx="1118.7525"
     inkscape:cy="562.66394"
     inkscape:window-width="1920"
     inkscape:window-height="1021"
     inkscape:window-x="1366"
     inkscape:window-y="27"
     inkscape:window-maximized="1"
     inkscape:current-layer="layer1" />
  <defs
     id="defs2" />
  <g
     inkscape:label="Layer 1"
     inkscape:groupmode="layer"
     id="layer1">
    <rect
       style="fill:#000000;stroke:#000000;stroke-width:0.327001;stroke-linecap:round;stroke-linejoin:round"
       id="rect2031"
       width="508"
       height="285.75"
       x="0"
       y="0" />
    <circle
       style="fill:#333333;stroke:#000000;stroke-width:0.248756;stroke-linecap:round;stroke-linejoin:round"
       id="path31"
       cx="48.112488"
       cy="47.470192"
       r="30.648329" />
    <circle
       style="fill:#000000;stroke:#000000;stroke-width:0.285217;stroke-linecap:round;stroke-linejoin:round"
       id="path33"
       cx="48.112488"
       cy="47.470192"
       r="27.81776" />
    <circle
       style="fill:#333333;stroke:#000000;stroke-width:0.185826;stroke-linecap:round;stroke-linejoin:round"
       id="circle2371"
       cx="115.31474"
       cy="230.56659"
       r="22.894922" />
    <circle
       style="fill:#000000;stroke:#000000;stroke-width:0.213063;stroke-linecap:round;stroke-linejoin:round"
       id="circle2373"
       cx="115.31474"
       cy="230.56659"
       r="20.78043" />
    <circle
       style="fill:#333333;stroke:#000000;stroke-width:0.221595;stroke-linecap:round;stroke-linejoin:round"
       id="circle2375"
       cx="357.76901"
       cy="71.68"
       r="27.30184" />
    <circle
       style="fill:#000000;stroke:#000000;stroke-width:0.254074;stroke-linecap:round;stroke-linejoin:round"
       id="circle2377"
       cx="357.76901"
       cy="71.68"
       r="24.78034" />
    <circle
       style="fill:#333333;stroke:#000000;stroke-width:0.280815;stroke-linecap:round;stroke-linejoin:round"
       id="circle2379"
       cx="264.89557"
       cy="243.41986"
       r="34.598042" />
    <circle
       style="fill:#000000;stroke:#000000;stroke-width:0.321973;stroke-linecap:round;stroke-linejoin:round"
       id="circle2381"
       cx="264.89557"
       cy="243.41986"
       r="31.402691" />
    <circle
       style="fill:#333333;stroke:#000000;stroke-width:0.186852;stroke-linecap:round;stroke-linejoin:round"
       id="circle2385"
       cx="207.08099"
       cy="131.44643"
       r="23.021309" />
    <circle
       style="fill:#000000;stroke:#000000;stroke-width:0.214239;stroke-linecap:round;stroke-linejoin:round"
       id="circle2387"
       cx="207.08099"
       cy="131.44643"
       r="20.895144" />
    <circle
       style="fill:#333333;stroke:#000000;stroke-width:0.148186;stroke-linecap:round;stroke-linejoin:round"
       id="circle2389"
       cx="44.495117"
       cy="164.89166"
       r="18.257391" />
    <circle
       style="fill:#000000;stroke:#000000;stroke-width:0.169905;stroke-linecap:round;stroke-linejoin:round"
       id="circle2391"
       cx="44.495117"
       cy="164.89166"
       r="16.571203" />
    <circle
       style="fill:#333333;stroke:#000000;stroke-width:0.168318;stroke-linecap:round;stroke-linejoin:round"
       id="circle2393"
       cx="375.70624"
       cy="189.59479"
       r="20.737785" />
    <circle
       style="fill:#000000;stroke:#000000;stroke-width:0.192988;stroke-linecap:round;stroke-linejoin:round"
       id="circle2395"
       cx="375.70624"
       cy="189.59479"
       r="18.822517" />
    <path
       id="rect2525"
       style="opacity:0.65;fill:#d35f5f;stroke:#000000;stroke-width:0.172455;stroke-linecap:round;stroke-linejoin:round"
       d="m 74.540961,133.82428 0.27735,-0.27735 c 0.672253,-0.67226 1.754655,-0.67226 2.426906,0 l 19.207155,19.20715 c 0.67225,0.67225 0.67225,1.75465 0,2.42691 l -0.27735,0.27735 c -0.67225,0.67225 -1.75465,0.67225 -2.42691,0 L 74.540961,136.25118 c -0.672253,-0.67225 -0.672253,-1.75465 0,-2.4269 z m 21.634061,-0.27735 0.27735,0.27735 c 0.67225,0.67225 0.67225,1.75465 0,2.4269 l -19.207155,19.20716 c -0.672251,0.67225 -1.754653,0.67225 -2.426906,0 l -0.27735,-0.27735 c -0.672254,-0.67226 -0.672254,-1.75466 0,-2.42691 l 19.207151,-19.20715 c 0.67226,-0.67226 1.75466,-0.67226 2.42691,0 z"
       inkscape:transform-center-x="21.571982"
       inkscape:transform-center-y="-40.178763"
       inkscape:export-filename="/home/ogyun/Documents/site/cj1063-s-websites-testing/assets/Wallpapers/Wallpaper37.png"
       inkscape:export-xdpi="96"
       inkscape:export-ydpi="96" />
    <path
       id="path2620"
       style="opacity:0.65;fill:#d35f5f;stroke:#000000;stroke-width:0.278301;stroke-linecap:round;stroke-linejoin:round"
       d="m 140.73766,37.395819 0.44758,-0.447575 c 1.08485,-1.084865 2.83158,-1.084865 3.91644,0 l 30.99569,30.995684 c 1.08485,1.084849 1.08485,2.83158 0,3.916445 l -0.44758,0.447575 c -1.08485,1.084849 -2.83158,1.084849 -3.91644,0 l -30.99569,-30.9957 c -1.08484,-1.084849 -1.08484,-2.83158 0,-3.916429 z m 34.91213,-0.447575 0.44758,0.447575 c 1.08485,1.084849 1.08485,2.83158 0,3.916429 l -30.99569,30.9957 c -1.08486,1.084849 -2.83159,1.084849 -3.91644,0 l -0.44758,-0.447575 c -1.08484,-1.084865 -1.08484,-2.831596 0,-3.916445 l 30.99569,-30.995684 c 1.08486,-1.084865 2.83159,-1.084865 3.91644,0 z"
       inkscape:transform-center-x="34.811948"
       inkscape:transform-center-y="-64.838785"
       inkscape:export-filename="/home/ogyun/Documents/site/cj1063-s-websites-testing/assets/Wallpapers/Wallpaper37.png"
       inkscape:export-xdpi="96"
       inkscape:export-ydpi="96" />
    <path
       id="path2622"
       style="opacity:0.65;fill:#d35f5f;stroke:#000000;stroke-width:0.204604;stroke-linecap:round;stroke-linejoin:round"
       d="m 275.71531,139.46892 0.32906,-0.32905 c 0.79757,-0.79758 2.08174,-0.79758 2.87932,0 l 22.78766,22.78766 c 0.79757,0.79757 0.79757,2.08174 0,2.87933 l -0.32905,0.32904 c -0.79757,0.79757 -2.08175,0.79757 -2.87932,0 l -22.78767,-22.78767 c -0.79756,-0.79756 -0.79756,-2.08174 0,-2.87931 z m 25.66699,-0.32905 0.32905,0.32905 c 0.79757,0.79757 0.79757,2.08175 0,2.87931 l -22.78766,22.78767 c -0.79758,0.79757 -2.08175,0.79757 -2.87932,0 l -0.32906,-0.32904 c -0.79756,-0.79759 -0.79756,-2.08176 0,-2.87933 l 22.78767,-22.78766 c 0.79757,-0.79758 2.08175,-0.79758 2.87932,0 z"
       inkscape:transform-center-x="25.593338"
       inkscape:transform-center-y="-47.668717"
       inkscape:export-filename="/home/ogyun/Documents/site/cj1063-s-websites-testing/assets/Wallpapers/Wallpaper37.png"
       inkscape:export-xdpi="96"
       inkscape:export-ydpi="96" />
    <path
       id="path2624"
       style="opacity:0.65;fill:#d35f5f;stroke:#000000;stroke-width:0.259032;stroke-linecap:round;stroke-linejoin:round"
       d="m 441.85143,25.940671 0.4166,-0.416583 c 1.00973,-1.009749 2.63551,-1.009749 3.64526,0 l 28.84955,28.849545 c 1.00973,1.009737 1.00973,2.635516 0,3.645278 l -0.41659,0.41657 c -1.00973,1.009737 -2.63553,1.009737 -3.64526,0 L 441.85143,29.585924 c -1.00972,-1.009724 -1.00972,-2.635517 0,-3.645253 z m 32.49482,-0.416583 0.41659,0.416583 c 1.00973,1.009736 1.00973,2.635529 0,3.645253 l -28.84955,28.849557 c -1.00975,1.009737 -2.63553,1.009737 -3.64526,0 l -0.4166,-0.41657 c -1.00972,-1.009762 -1.00972,-2.635541 0,-3.645278 l 28.84956,-28.849545 c 1.00973,-1.009749 2.63553,-1.009749 3.64526,0 z"
       inkscape:transform-center-x="32.401578"
       inkscape:transform-center-y="-60.349364"
       inkscape:export-filename="/home/ogyun/Documents/site/cj1063-s-websites-testing/assets/Wallpapers/Wallpaper37.png"
       inkscape:export-xdpi="96"
       inkscape:export-ydpi="96" />
    <path
       id="path2626"
       style="opacity:0.65;fill:#d35f5f;stroke:#000000;stroke-width:0.282441;stroke-linecap:round;stroke-linejoin:round"
       d="m 17.670354,231.86187 0.454248,-0.45424 c 1.100979,-1.101 2.87368,-1.101 3.97468,0 l 31.45667,31.45667 c 1.100979,1.10098 1.100979,2.87368 0,3.9747 l -0.454237,0.45422 c -1.100979,1.10097 -2.873702,1.10097 -3.974681,0 l -31.45668,-31.45668 c -1.100968,-1.10098 -1.100968,-2.8737 0,-3.97467 z m 35.431361,-0.45424 0.454237,0.45424 c 1.100979,1.10097 1.100979,2.87369 0,3.97467 l -31.45667,31.45668 c -1.101,1.10097 -2.873701,1.10097 -3.97468,0 L 17.670354,266.839 c -1.100968,-1.10102 -1.100968,-2.87372 0,-3.9747 l 31.45668,-31.45667 c 1.100979,-1.101 2.873702,-1.101 3.974681,0 z"
       inkscape:transform-center-x="35.329692"
       inkscape:transform-center-y="-65.803107"
       inkscape:export-filename="/home/ogyun/Documents/site/cj1063-s-websites-testing/assets/Wallpapers/Wallpaper37.png"
       inkscape:export-xdpi="96"
       inkscape:export-ydpi="96" />
    <path
       id="path2628"
       style="opacity:0.65;fill:#d35f5f;stroke:#000000;stroke-width:0.161632;stroke-linecap:round;stroke-linejoin:round"
       d="m 236.7917,80.598019 0.25994,-0.259944 c 0.63006,-0.63007 1.64454,-0.63007 2.2746,0 l 18.00174,18.001734 c 0.63006,0.630063 0.63006,1.644526 0,2.274601 l -0.25995,0.25995 c -0.63005,0.63005 -1.64453,0.63005 -2.27459,0 L 236.7917,82.87261 c -0.63006,-0.630061 -0.63006,-1.64453 0,-2.274591 z m 20.27633,-0.259944 0.25995,0.259944 c 0.63006,0.630061 0.63006,1.64453 0,2.274591 l -18.00174,18.00175 c -0.63006,0.63005 -1.64454,0.63005 -2.2746,0 l -0.25994,-0.25995 c -0.63006,-0.630075 -0.63006,-1.644538 0,-2.274601 l 18.00174,-18.001734 c 0.63006,-0.63007 1.64454,-0.63007 2.27459,0 z"
       inkscape:transform-center-x="20.218152"
       inkscape:transform-center-y="-37.657194"
       inkscape:export-filename="/home/ogyun/Documents/site/cj1063-s-websites-testing/assets/Wallpapers/Wallpaper37.png"
       inkscape:export-xdpi="96"
       inkscape:export-ydpi="96" />
    <path
       id="path2630"
       style="opacity:0.65;fill:#d35f5f;stroke:#000000;stroke-width:0.290488;stroke-linecap:round;stroke-linejoin:round"
       d="m 435.40652,221.16478 0.46715,-0.46718 c 1.13237,-1.13238 2.9556,-1.13238 4.08795,0 l 32.35307,32.35305 c 1.13235,1.13237 1.13235,2.95558 0,4.08797 l -0.46719,0.46717 c -1.13234,1.13235 -2.95556,1.13235 -4.08793,0 l -32.35305,-32.35307 c -1.13237,-1.13237 -1.13237,-2.95558 0,-4.08794 z m 36.44098,-0.46718 0.46719,0.46718 c 1.13235,1.13236 1.13235,2.95557 0,4.08794 l -32.35307,32.35307 c -1.13235,1.13235 -2.95558,1.13235 -4.08795,0 l -0.46715,-0.46717 c -1.13237,-1.13239 -1.13237,-2.9556 0,-4.08797 l 32.35305,-32.35305 c 1.13237,-1.13238 2.95559,-1.13238 4.08793,0 z"
       inkscape:transform-center-x="36.336446"
       inkscape:transform-center-y="-67.678217"
       inkscape:export-filename="/home/ogyun/Documents/site/cj1063-s-websites-testing/assets/Wallpapers/Wallpaper37.png"
       inkscape:export-xdpi="96"
       inkscape:export-ydpi="96" />
    <rect
       style="opacity:0.5;fill:#00ff00;stroke:#000000;stroke-width:0.224011;stroke-linecap:round;stroke-linejoin:round"
       id="rect38"
       width="26.60788"
       height="26.60788"
       x="163.0614"
       y="215.66191"
       ry="2.1079588" />
    <rect
       style="fill:#000000;stroke:#000000;stroke-width:0.250672;stroke-linecap:round;stroke-linejoin:round"
       id="rect40"
       width="22.785006"
       height="22.785006"
       x="164.97284"
       y="217.57335" />
    <rect
       style="fill:#000000;stroke:#000000;stroke-width:0.250672;stroke-linecap:round;stroke-linejoin:round"
       id="rect265"
       width="22.785006"
       height="22.785006"
       x="164.97284"
       y="217.57335" />
    <rect
       style="opacity:0.5;fill:#00ff00;stroke:#000000;stroke-width:0.294207;stroke-linecap:round;stroke-linejoin:round"
       id="rect42"
       width="34.945709"
       height="34.945709"
       x="115.94991"
       y="152.22865"
       ry="2.7685075" />
    <rect
       style="fill:#000000;stroke:#000000;stroke-width:0.329222;stroke-linecap:round;stroke-linejoin:round"
       id="rect44"
       width="29.924902"
       height="29.924902"
       x="118.46031"
       y="154.73906" />
    <rect
       style="fill:#000000;stroke:#000000;stroke-width:0.329222;stroke-linecap:round;stroke-linejoin:round"
       id="rect46"
       width="29.924902"
       height="29.924902"
       x="118.46031"
       y="154.73906" />
    <rect
       style="opacity:0.5;fill:#00ff00;stroke:#000000;stroke-width:0.338434;stroke-linecap:round;stroke-linejoin:round"
       id="rect48"
       width="40.19894"
       height="40.19894"
       x="230.04448"
       y="12.083169"
       ry="3.1846848" />
    <rect
       style="fill:#000000;stroke:#000000;stroke-width:0.378712;stroke-linecap:round;stroke-linejoin:round"
       id="rect50"
       width="34.423378"
       height="34.423378"
       x="232.93227"
       y="14.970953" />
    <rect
       style="fill:#000000;stroke:#000000;stroke-width:0.378712;stroke-linecap:round;stroke-linejoin:round"
       id="rect52"
       width="34.423378"
       height="34.423378"
       x="232.93227"
       y="14.970953" />
    <rect
       style="opacity:0.5;fill:#00ff00;stroke:#000000;stroke-width:0.267504;stroke-linecap:round;stroke-linejoin:round"
       id="rect54"
       width="31.773985"
       height="31.773985"
       x="417.39172"
       y="139.0238"
       ry="2.5172336" />
    <rect
       style="fill:#000000;stroke:#000000;stroke-width:0.299341;stroke-linecap:round;stroke-linejoin:round"
       id="rect56"
       width="27.208874"
       height="27.208874"
       x="419.67429"
       y="141.30635" />
    <rect
       style="fill:#000000;stroke:#000000;stroke-width:0.299341;stroke-linecap:round;stroke-linejoin:round"
       id="rect58"
       width="27.208874"
       height="27.208874"
       x="419.67429"
       y="141.30635" />
    <path
       sodipodi:type="star"
       style="opacity:0.5;fill:#0000ff;stroke:#000000;stroke-width:1.23591;stroke-linecap:round;stroke-linejoin:round"
       id="path431"
       inkscape:flatsided="true"
       sodipodi:sides="3"
       sodipodi:cx="279.63864"
       sodipodi:cy="628.9906"
       sodipodi:r1="95.130547"
       sodipodi:r2="47.565269"
       sodipodi:arg1="0.52359878"
       sodipodi:arg2="1.5707963"
       inkscape:rounded="0"
       inkscape:randomized="0"
       transform="matrix(0.13386249,0,0,0.13386249,447.79847,115.54875)"
       inkscape:transform-center-y="-3.1836009"
       d="m 362.02411,676.55587 -164.77094,0 82.38547,-142.69582 z" />
    <path
       sodipodi:type="star"
       style="opacity:1;fill:#000000;stroke:#000000;stroke-width:1.23591;stroke-linecap:round;stroke-linejoin:round"
       id="path433"
       inkscape:flatsided="true"
       sodipodi:sides="3"
       sodipodi:cx="280.18008"
       sodipodi:cy="564.0697"
       sodipodi:r1="74.713394"
       sodipodi:r2="37.356697"
       sodipodi:arg1="-1.5707963"
       sodipodi:arg2="-0.52359878"
       inkscape:rounded="0"
       inkscape:randomized="0"
       transform="matrix(0.13386249,0,0,0.13386249,447.72599,124.23922)"
       inkscape:transform-center-y="-2.500333"
       d="m 280.18009,489.35631 64.70369,112.07009 -129.40739,0 z" />
    <path
       sodipodi:type="star"
       style="opacity:0.5;fill:#0000ff;stroke:#000000;stroke-width:1.23591;stroke-linecap:round;stroke-linejoin:round"
       id="path77"
       inkscape:flatsided="true"
       sodipodi:sides="3"
       sodipodi:cx="279.63864"
       sodipodi:cy="628.9906"
       sodipodi:r1="95.130547"
       sodipodi:r2="47.565269"
       sodipodi:arg1="0.52359878"
       sodipodi:arg2="1.5707963"
       inkscape:rounded="0"
       inkscape:randomized="0"
       transform="matrix(0.2012413,0,0,0.2012413,346.65391,-8.6148147)"
       inkscape:transform-center-y="-4.7860439"
       d="m 362.02411,676.55587 -164.77094,0 82.38547,-142.69582 z" />
    <path
       sodipodi:type="star"
       style="opacity:1;fill:#000000;stroke:#000000;stroke-width:1.23591;stroke-linecap:round;stroke-linejoin:round"
       id="path79"
       inkscape:flatsided="true"
       sodipodi:sides="3"
       sodipodi:cx="280.18008"
       sodipodi:cy="564.0697"
       sodipodi:r1="74.713394"
       sodipodi:r2="37.356697"
       sodipodi:arg1="-1.5707963"
       sodipodi:arg2="-0.52359878"
       inkscape:rounded="0"
       inkscape:randomized="0"
       transform="matrix(0.2012413,0,0,0.2012413,346.54495,4.4499462)"
       inkscape:transform-center-y="-3.758858"
       d="m 280.18009,489.35631 64.70369,112.07009 -129.40739,0 z"
       inkscape:transform-center-x="-2.4824456e-06" />
    <path
       sodipodi:type="star"
       style="opacity:0.5;fill:#0000ff;stroke:#000000;stroke-width:1.23591;stroke-linecap:round;stroke-linejoin:round"
       id="path81"
       inkscape:flatsided="true"
       sodipodi:sides="3"
       sodipodi:cx="279.63864"
       sodipodi:cy="628.9906"
       sodipodi:r1="95.130547"
       sodipodi:r2="47.565269"
       sodipodi:arg1="0.52359878"
       sodipodi:arg2="1.5707963"
       inkscape:rounded="0"
       inkscape:randomized="0"
       transform="matrix(0.27277267,0,0,0.27277267,64.525886,-55.993289)"
       inkscape:transform-center-y="-6.4872457"
       d="m 362.02411,676.55587 -164.77094,0 82.38547,-142.69582 z" />
    <path
       sodipodi:type="star"
       style="opacity:1;fill:#000000;stroke:#000000;stroke-width:1.23591;stroke-linecap:round;stroke-linejoin:round"
       id="path83"
       inkscape:flatsided="true"
       sodipodi:sides="3"
       sodipodi:cx="280.18008"
       sodipodi:cy="564.0697"
       sodipodi:r1="74.713394"
       sodipodi:r2="37.356697"
       sodipodi:arg1="-1.5707963"
       sodipodi:arg2="-0.52359878"
       inkscape:rounded="0"
       inkscape:randomized="0"
       transform="matrix(0.27277267,0,0,0.27277267,64.378196,-38.284649)"
       inkscape:transform-center-y="-5.0949457"
       d="m 280.18009,489.35631 64.70369,112.07009 -129.40739,0 z"
       inkscape:transform-center-x="-4.0640657e-06" />
    <path
       sodipodi:type="star"
       style="opacity:0.5;fill:#0000ff;stroke:#000000;stroke-width:1.23591;stroke-linecap:round;stroke-linejoin:round"
       id="path85"
       inkscape:flatsided="true"
       sodipodi:sides="3"
       sodipodi:cx="279.63864"
       sodipodi:cy="628.9906"
       sodipodi:r1="95.130547"
       sodipodi:r2="47.565269"
       sodipodi:arg1="0.52359878"
       sodipodi:arg2="1.5707963"
       inkscape:rounded="0"
       inkscape:randomized="0"
       transform="matrix(0.19894575,0,0,0.19894575,46.31946,-94.982372)"
       inkscape:transform-center-y="-4.7314518"
       d="m 362.02411,676.55587 -164.77094,0 82.38547,-142.69582 z"
       inkscape:transform-center-x="1.0783746e-06" />
    <path
       sodipodi:type="star"
       style="opacity:1;fill:#000000;stroke:#000000;stroke-width:1.23591;stroke-linecap:round;stroke-linejoin:round"
       id="path87"
       inkscape:flatsided="true"
       sodipodi:sides="3"
       sodipodi:cx="280.18008"
       sodipodi:cy="564.0697"
       sodipodi:r1="74.713394"
       sodipodi:r2="37.356697"
       sodipodi:arg1="-1.5707963"
       sodipodi:arg2="-0.52359878"
       inkscape:rounded="0"
       inkscape:randomized="0"
       transform="matrix(0.19894575,0,0,0.19894575,46.211743,-82.06664)"
       inkscape:transform-center-y="-3.7159828"
       d="m 280.18009,489.35631 64.70369,112.07009 -129.40739,0 z"
       inkscape:transform-center-x="-2.0474948e-06" />
    <path
       sodipodi:type="star"
       style="opacity:0.5;fill:#0000ff;stroke:#000000;stroke-width:1.23591;stroke-linecap:round;stroke-linejoin:round"
       id="path89"
       inkscape:flatsided="true"
       sodipodi:sides="3"
       sodipodi:cx="279.63864"
       sodipodi:cy="628.9906"
       sodipodi:r1="95.130547"
       sodipodi:r2="47.565269"
       sodipodi:arg1="0.52359878"
       sodipodi:arg2="1.5707963"
       inkscape:rounded="0"
       inkscape:randomized="0"
       transform="matrix(0.19087081,0,0,0.19087081,20.988126,148.77151)"
       inkscape:transform-center-y="-4.5394065"
       d="m 362.02411,676.55587 -164.77094,0 82.38547,-142.69582 z"
       inkscape:transform-center-x="1.0465052e-06"
       inkscape:export-filename="/home/ogyun/Documents/site/cj1063-s-websites-testing/assets/Wallpapers/Wallpaper-37.png"
       inkscape:export-xdpi="96"
       inkscape:export-ydpi="96" />
    <path
       sodipodi:type="star"
       style="opacity:1;fill:#000000;stroke:#000000;stroke-width:1.23591;stroke-linecap:round;stroke-linejoin:round"
       id="path91"
       inkscape:flatsided="true"
       sodipodi:sides="3"
       sodipodi:cx="280.18008"
       sodipodi:cy="564.0697"
       sodipodi:r1="74.713394"
       sodipodi:r2="37.356697"
       sodipodi:arg1="-1.5707963"
       sodipodi:arg2="-0.52359878"
       inkscape:rounded="0"
       inkscape:randomized="0"
       transform="matrix(0.19087081,0,0,0.19087081,20.884781,161.16301)"
       inkscape:transform-center-y="-3.565152"
       d="m 280.18009,489.35631 64.70369,112.07009 -129.40739,0 z"
       inkscape:transform-center-x="-1.8645609e-06"
       inkscape:export-filename="/home/ogyun/Documents/site/cj1063-s-websites-testing/assets/Wallpapers/Wallpaper-37.png"
       inkscape:export-xdpi="96"
       inkscape:export-ydpi="96" />
  </g>
</svg>
