<?xml version="1.0" encoding="UTF-8" standalone="no"?>
<!-- Created with Inkscape (http://www.inkscape.org/) -->

<svg
   width="1920"
   height="1080"
   viewBox="0 0 508 285.75"
   version="1.1"
   id="svg5"
   inkscape:version="1.1.2 (0a00cf5339, 2022-02-04)"
   sodipodi:docname="Wallpaper-32-Asset.svg"
   inkscape:export-filename="/home/ogyun/Documents/site/cj1063-s-websites-testing/assets/Wallpapers/Wallpaper-32.png"
   inkscape:export-xdpi="96"
   inkscape:export-ydpi="96"
   xmlns:inkscape="http://www.inkscape.org/namespaces/inkscape"
   xmlns:sodipodi="http://sodipodi.sourceforge.net/DTD/sodipodi-0.dtd"
   xmlns="http://www.w3.org/2000/svg"
   xmlns:svg="http://www.w3.org/2000/svg">
  <sodipodi:namedview
     id="namedview7"
     pagecolor="#505050"
     bordercolor="#eeeeee"
     borderopacity="1"
     inkscape:pageshadow="0"
     inkscape:pageopacity="0"
     inkscape:pagecheckerboard="0"
     inkscape:document-units="mm"
     showgrid="false"
     units="px"
     inkscape:snap-bbox="true"
     inkscape:bbox-paths="true"
     inkscape:bbox-nodes="true"
     inkscape:snap-bbox-edge-midpoints="true"
     inkscape:snap-bbox-midpoints="true"
     inkscape:object-paths="true"
     inkscape:snap-intersection-paths="true"
     inkscape:snap-smooth-nodes="true"
     inkscape:snap-midpoints="true"
     inkscape:snap-object-midpoints="true"
     inkscape:snap-center="true"
     inkscape:snap-text-baseline="true"
     inkscape:snap-page="true"
     inkscape:snap-global="false"
     inkscape:zoom="1.0645787"
     inkscape:cx="349.90368"
     inkscape:cy="608.22184"
     inkscape:window-width="1920"
     inkscape:window-height="1021"
     inkscape:window-x="1366"
     inkscape:window-y="27"
     inkscape:window-maximized="1"
     inkscape:current-layer="layer1" />
  <defs
     id="defs2">
    <inkscape:path-effect
       effect="bspline"
       id="path-effect14942"
       is_visible="true"
       lpeversion="1"
       weight="33.333333"
       steps="2"
       helper_size="0"
       apply_no_weight="true"
       apply_with_weight="true"
       only_selected="false" />
    <inkscape:path-effect
       effect="bspline"
       id="path-effect12712"
       is_visible="true"
       lpeversion="1"
       weight="33.333333"
       steps="2"
       helper_size="0"
       apply_no_weight="true"
       apply_with_weight="true"
       only_selected="false" />
    <inkscape:path-effect
       effect="bspline"
       id="path-effect10423"
       is_visible="true"
       lpeversion="1"
       weight="33.333333"
       steps="2"
       helper_size="0"
       apply_no_weight="true"
       apply_with_weight="true"
       only_selected="false" />
    <inkscape:path-effect
       effect="bspline"
       id="path-effect7400"
       is_visible="true"
       lpeversion="1"
       weight="33.333333"
       steps="2"
       helper_size="0"
       apply_no_weight="true"
       apply_with_weight="true"
       only_selected="false" />
    <inkscape:path-effect
       effect="bspline"
       id="path-effect7171"
       is_visible="true"
       lpeversion="1"
       weight="33.333333"
       steps="2"
       helper_size="0"
       apply_no_weight="true"
       apply_with_weight="true"
       only_selected="false" />
    <inkscape:path-effect
       effect="bspline"
       id="path-effect4214"
       is_visible="true"
       lpeversion="1"
       weight="33.333333"
       steps="2"
       helper_size="0"
       apply_no_weight="true"
       apply_with_weight="true"
       only_selected="false" />
    <inkscape:path-effect
       effect="bspline"
       id="path-effect193"
       is_visible="true"
       lpeversion="1"
       weight="33.333333"
       steps="2"
       helper_size="0"
       apply_no_weight="true"
       apply_with_weight="true"
       only_selected="false" />
    <inkscape:path-effect
       effect="bspline"
       id="path-effect77"
       is_visible="true"
       lpeversion="1"
       weight="33.333333"
       steps="2"
       helper_size="0"
       apply_no_weight="true"
       apply_with_weight="true"
       only_selected="false" />
    <inkscape:path-effect
       effect="bspline"
       id="path-effect4214-3"
       is_visible="true"
       lpeversion="1"
       weight="33.333333"
       steps="2"
       helper_size="0"
       apply_no_weight="true"
       apply_with_weight="true"
       only_selected="false" />
    <inkscape:path-effect
       effect="bspline"
       id="path-effect7171-7"
       is_visible="true"
       lpeversion="1"
       weight="33.333333"
       steps="2"
       helper_size="0"
       apply_no_weight="true"
       apply_with_weight="true"
       only_selected="false" />
    <inkscape:path-effect
       effect="bspline"
       id="path-effect7400-3"
       is_visible="true"
       lpeversion="1"
       weight="33.333333"
       steps="2"
       helper_size="0"
       apply_no_weight="true"
       apply_with_weight="true"
       only_selected="false" />
    <inkscape:path-effect
       effect="bspline"
       id="path-effect7400-3-6"
       is_visible="true"
       lpeversion="1"
       weight="33.333333"
       steps="2"
       helper_size="0"
       apply_no_weight="true"
       apply_with_weight="true"
       only_selected="false" />
    <inkscape:path-effect
       effect="bspline"
       id="path-effect7400-2"
       is_visible="true"
       lpeversion="1"
       weight="33.333333"
       steps="2"
       helper_size="0"
       apply_no_weight="true"
       apply_with_weight="true"
       only_selected="false" />
    <inkscape:path-effect
       effect="bspline"
       id="path-effect193-9"
       is_visible="true"
       lpeversion="1"
       weight="33.333333"
       steps="2"
       helper_size="0"
       apply_no_weight="true"
       apply_with_weight="true"
       only_selected="false" />
    <inkscape:path-effect
       effect="bspline"
       id="path-effect77-1"
       is_visible="true"
       lpeversion="1"
       weight="33.333333"
       steps="2"
       helper_size="0"
       apply_no_weight="true"
       apply_with_weight="true"
       only_selected="false" />
    <inkscape:path-effect
       effect="bspline"
       id="path-effect7171-6"
       is_visible="true"
       lpeversion="1"
       weight="33.333333"
       steps="2"
       helper_size="0"
       apply_no_weight="true"
       apply_with_weight="true"
       only_selected="false" />
  </defs>
  <g
     inkscape:label="Layer 1"
     inkscape:groupmode="layer"
     id="layer1"
     style="opacity:1">
    <rect
       style="display:inline;fill:#00abab;fill-opacity:1;stroke:#000000;stroke-width:0.327001;stroke-linecap:round;stroke-linejoin:round"
       id="rect134"
       width="508"
       height="285.75"
       x="0"
       y="-285.75"
       transform="scale(1,-1)" />
    <path
       style="display:inline;fill:#00ffff;stroke:#000000;stroke-width:0.264583px;stroke-linecap:butt;stroke-linejoin:miter;stroke-opacity:1"
       d="M 9.1061815,159.13537 C 32.580561,114.01378 61.861246,58.358207 95.353128,69.619013 128.84501,80.879819 166.54637,159.05367 197.26544,171.78993 c 30.71907,12.73626 54.45434,-39.96432 83.67784,-45.6531 29.2235,-5.68877 63.93308,35.63351 99.94565,31.11418 36.01258,-4.51933 73.32625,-54.87884 102.06785,-42.8333 28.74161,12.04553 48.90947,86.49388 53.0112,128.30614 4.10172,41.81226 -7.8626,50.98693 -98.88827,55.35097 -91.02567,4.36404 -261.10591,3.91725 -355.413586,-0.9917 -94.307677,-4.90896 -112.838699,-14.27987 -113.27037,-36.25957 -0.431671,-21.97971 17.236048,-56.5666 40.7104275,-101.68818 z"
       id="path75"
       inkscape:original-d="M 3.2999238,169.66927 C 32.580876,114.01395 61.861562,58.358373 91.141985,2.702528 128.84512,80.879766 166.54649,159.05361 204.24834,237.22876 227.98483,184.52633 251.7201,131.82575 275.45559,79.123846 310.1668,120.44804 344.87638,161.77032 379.58638,203.09316 416.90181,152.7319 454.21547,102.37239 491.52963,52.011608 511.69855,126.4632 531.86642,200.91154 552.03444,275.36111 540.06993,284.53641 528.1056,293.71107 516.1408,302.88566 346.05404,302.43912 175.9738,301.99232 5.8898953,301.54528 -12.641604,292.17426 -31.172629,282.80336 -49.704286,273.432 -32.035599,238.844 -14.367881,204.25711 3.2999238,169.66927 Z"
       inkscape:path-effect="#path-effect77" />
    <path
       style="display:inline;fill:#00dada;fill-opacity:1;stroke:#000000;stroke-width:0.264583px;stroke-linecap:butt;stroke-linejoin:miter;stroke-opacity:1"
       d="M -16.188248,248.11371 C 0.9362938,188.81766 45.276919,100.81642 76.990654,86.769992 108.70439,72.723563 127.78817,132.63168 151.38563,163.19576 c 23.59746,30.56408 51.7056,31.78078 74.83286,18.87338 23.12727,-12.9074 41.27117,-39.93741 60.84789,-43.65042 19.57671,-3.713 40.58397,15.89167 59.68679,24.05253 19.10281,8.16087 36.30012,4.87798 58.60179,-9.28439 22.30166,-14.16238 49.70588,-39.20273 72.3152,-34.03981 22.60932,5.16292 40.42093,40.52816 47.67501,73.20699 7.25408,32.67882 3.94988,62.668 -0.70073,91.59214 -4.65061,28.92413 -10.64755,56.78266 -100.50233,70.71183 C 334.28733,368.58717 160.58137,368.58717 68.680327,353.29259 -23.220716,337.998 -33.31279,307.40975 -16.188248,248.11371 Z"
       id="path191"
       sodipodi:nodetypes="ccccccccccccc"
       inkscape:original-d="M -43.405172,276.82057 C 0.93661003,188.81782 45.277236,100.81658 89.619371,12.811553 108.70455,72.723512 127.78833,132.63163 146.87298,192.54305 c 28.1101,1.21704 56.21824,2.43375 84.32782,3.65026 18.14526,-27.03137 36.28917,-54.06138 54.43391,-81.09329 21.00837,19.60571 42.01563,39.21038 63.02304,58.81516 17.19829,-3.28276 34.3956,-6.56564 51.59301,-9.84886 27.40611,-25.04157 54.81033,-50.08191 82.2159,-75.124002 17.81293,35.367602 35.62453,70.732842 53.43694,106.099932 -3.30407,29.99064 -6.60826,59.97982 -9.91279,89.96934 -5.99668,27.85879 -11.99362,55.71732 -17.99082,83.57558 -173.71266,2.7e-4 -347.41862,2.7e-4 -521.128329,0 -10.092216,-30.58922 -20.18429,-61.17747 -30.276833,-91.7666 z"
       inkscape:path-effect="#path-effect193" />
    <path
       style="display:inline;fill:#00a6a6;fill-opacity:1;stroke:#000000;stroke-width:0.264583px;stroke-linecap:butt;stroke-linejoin:miter;stroke-opacity:1"
       d="m 62.876228,414.26753 c 34.759482,-3.58563 41.473772,8.7611 123.451062,23.85599 81.9773,15.09489 239.20778,32.93664 307.58796,-29.51901 68.38018,-62.45564 47.90214,-205.20141 14.41919,-255.90566 -33.48296,-50.70425 -79.96672,-9.36056 -108.62025,10.65364 -28.65354,20.0142 -39.47362,18.69639 -54.79604,8.31202 -15.32241,-10.38438 -35.1453,-29.83431 -59.18971,-21.53104 -24.04442,8.30326 -52.3072,44.35895 -77.88112,52.06279 C 182.2734,209.9001 159.39067,189.25052 141.74979,162.8222 124.10891,136.39387 111.71123,104.18906 95.17531,97.015597 78.63939,89.84213 57.967306,107.70119 39.895202,139.3385 21.823098,170.9758 6.3532042,216.38739 -16.11162,271.60997 c -22.464823,55.22258 -51.921913,120.24963 -35.248361,143.0055 16.673553,22.75588 79.476728,3.23768 114.236209,-0.34794 z"
       id="path7398"
       sodipodi:nodetypes="cccccccccccccc"
       inkscape:original-d="m 90.921107,398.33459 c 6.714698,12.34726 13.428983,24.69399 20.143283,37.04097 157.24017,17.84308 314.47065,35.68483 471.71028,53.52738 C 562.29565,346.14884 541.81761,203.40307 521.33806,60.648406 474.85173,101.99488 428.36797,143.33857 381.88109,184.68454 c -10.82047,-1.31762 -21.64055,-2.63543 -32.46155,-3.95358 -19.8238,-19.45083 -39.64669,-38.90076 -59.47102,-58.35211 -28.26421,36.05811 -56.52699,72.1138 -84.79174,108.1714 C 182.27339,209.90011 159.39066,189.25053 136.50721,168.60029 124.10905,136.39382 111.71137,104.18901 99.312688,71.982017 78.639634,89.842413 57.967553,107.70148 37.293969,125.56134 21.823416,170.97591 6.3535203,216.3875 -9.1175569,261.80153 -38.576125,326.83269 -68.033213,391.85974 -97.492319,456.89039 -34.686332,437.37166 28.116845,417.85347 90.921107,398.33459 Z"
       inkscape:path-effect="#path-effect7400" />
    <path
       style="display:inline;fill:#009696;fill-opacity:1;stroke:#000000;stroke-width:0.264583px;stroke-linecap:butt;stroke-linejoin:miter;stroke-opacity:1"
       d="m 58.163952,429.14068 c 34.759481,-3.58563 41.473766,8.7611 123.451058,23.85599 81.9773,15.09489 239.20778,32.93664 307.58796,-29.51901 68.38018,-62.45564 47.90214,-205.20141 14.41919,-255.90566 -33.48296,-50.70425 -79.96672,-9.36056 -108.62025,10.65364 -28.65354,20.0142 -39.47362,18.69639 -54.79604,8.31202 -15.32241,-10.38438 -35.1453,-29.83431 -59.18971,-21.53104 -24.04442,8.30326 -52.3072,44.35895 -77.88112,52.06279 -25.57392,7.70384 -48.45665,-12.94574 -66.09753,-39.37406 -17.64088,-26.42833 -30.03856,-58.63314 -46.574476,-65.8066 -16.535919,-7.17347 -37.208004,10.68559 -55.280108,42.3229 -18.072104,31.6373 -33.5419979,77.04889 -56.006822,132.27147 -22.464825,55.22258 -51.921915,120.24962 -35.248362,143.0055 16.673553,22.75588 79.476729,3.23768 114.23621,-0.34794 z"
       id="path7398-5"
       sodipodi:nodetypes="cccccccccccccc"
       inkscape:original-d="m 86.208831,413.20774 c 6.714698,12.34726 13.428983,24.69399 20.143279,37.04097 157.24017,17.84308 314.47065,35.68483 471.71028,53.52738 C 557.58337,361.02199 537.10533,218.27622 516.62578,75.521556 470.13945,116.86803 423.65569,158.21172 377.16881,199.55769 366.34834,198.24007 355.52826,196.92226 344.70726,195.60411 324.88346,176.15328 305.06057,156.70335 285.23624,137.252 256.97203,173.31011 228.70925,209.3658 200.4445,245.4234 177.56111,224.77326 154.67838,204.12368 131.79493,183.47344 119.39677,151.26697 106.99909,119.06216 94.600412,86.855167 73.927358,104.71556 53.255277,122.57463 32.581693,140.43449 17.11114,185.84906 1.6412444,231.26065 -13.829833,276.67468 -43.288401,341.70584 -72.745486,406.73289 -102.2046,471.76354 -39.398608,452.24481 23.404569,432.72662 86.208831,413.20774 Z"
       inkscape:path-effect="#path-effect7400-3" />
    <path
       style="display:inline;fill:#00ffff;stroke:#000000;stroke-width:0.264583px;stroke-linecap:butt;stroke-linejoin:miter;stroke-opacity:1"
       d="m 131.73911,70.664604 c 22.18502,42.737676 48.88649,93.624496 75.735,93.137786 26.84851,-0.48672 53.84142,-52.34572 83.27349,-55.34321 29.43207,-2.99748 61.30007,42.86654 89.11774,42.75255 27.81766,-0.11399 51.5815,-46.20572 85.87171,-47.98088 34.29021,-1.77517 79.10282,40.76631 115.89442,23.75098 36.7916,-17.01533 65.55821,-93.586613 73.95936,-136.4603405 8.40116,-42.8737275 -3.56316,-52.0484025 -94.58883,-56.4124395 -91.02567,-4.364037 -261.10591,-3.917253 -355.41358,0.991705 -94.30768,4.908957 -112.8387,14.279862 -113.270372,36.259571 -0.431672,21.979709 17.236042,56.566599 39.421062,99.304278 z"
       id="path75-7"
       sodipodi:nodetypes="ccccccccccc"
       inkscape:original-d="m 127.22221,62.514602 c 26.70202,50.887628 53.40349,101.774448 80.10585,152.663218 26.99487,-51.86199 53.98779,-103.72099 80.98176,-155.582789 31.8699,45.866629 63.73791,91.730649 95.60778,137.597469 23.76572,-46.0946 47.52955,-92.18633 71.29441,-138.280804 44.81524,42.543994 89.62785,85.085474 134.44316,127.629504 28.76822,-76.57458 57.53483,-153.145862 86.30156,-229.718439 -11.96451,-9.1753 -23.92884,-18.34996 -35.89364,-27.52455 -170.08676,0.44654 -340.167,0.89334 -510.2509,1.34038 -18.5315,9.37102 -37.062524,18.74192 -55.594181,28.11328 17.668687,34.5880004 35.336401,69.174891 53.004201,103.762731 z"
       inkscape:path-effect="#path-effect77-1" />
    <path
       style="display:inline;fill:#00dada;fill-opacity:1;stroke:#000000;stroke-width:0.264583px;stroke-linecap:butt;stroke-linejoin:miter;stroke-opacity:1"
       d="m 105.55489,-17.792564 c 14.94539,57.43332 54.92766,141.708884 84.45992,163.335774 29.53227,21.62688 48.61123,-19.39588 71.91427,-37.30512 23.30303,-17.909245 50.82678,-12.702378 70.76747,1.5616 19.94069,14.26398 32.29591,37.5828 51.15022,34.40626 18.85431,-3.17654 44.20472,-32.84773 65.36718,-43.23917 21.16246,-10.391434 38.13435,-1.501715 63.63219,8.75777 25.49783,10.25948 59.51931,21.8879 85.43747,10.01862 25.91816,-11.86927 43.72977,-47.23451 50.98385,-79.913333 7.25408,-32.6788232 3.94988,-62.668004 -0.70073,-91.592143 -4.65061,-28.924139 -10.64755,-56.782664 -100.50233,-70.711834 -89.85478,-13.92916 -263.56074,-13.92916 -355.46178,1.36542 -91.90104,15.29459 -101.993117,45.882837 -87.04773,103.316156 z"
       id="path191-0"
       sodipodi:nodetypes="ccccccccccccc"
       inkscape:original-d="M 80.517123,-44.636699 C 120.5004,39.6407 160.48266,123.91627 200.46671,208.19589 c 19.08069,-41.02565 38.15965,-82.04841 57.23967,-123.074286 27.52569,5.207449 55.04944,10.414316 82.57456,15.621226 12.35639,23.32079 24.71162,46.63961 37.06766,69.9602 25.35276,-29.67338 50.70317,-59.34457 76.05493,-89.017924 16.97283,8.89034 33.94472,17.780057 50.91694,26.669824 34.02345,11.62926 68.04493,23.25767 102.06848,34.88662 17.81293,-35.3676 35.62453,-70.732838 53.43694,-106.099928 -3.30407,-29.9906396 -6.60826,-59.979821 -9.91279,-89.969341 -5.99668,-27.858791 -11.99362,-55.717321 -17.99082,-83.575581 -173.71266,-2.7e-4 -347.41862,-2.7e-4 -521.12833,0 -10.09221,30.58922 -20.184284,61.177471 -30.276827,91.766601 z"
       inkscape:path-effect="#path-effect193-9" />
    <path
       style="display:inline;fill:#00a6a6;fill-opacity:1;stroke:#000000;stroke-width:0.264583px;stroke-linecap:butt;stroke-linejoin:miter;stroke-opacity:1"
       d="m 186.79852,-182.08366 c 34.75948,3.58563 41.47377,-8.7611 123.45106,-23.85599 81.9773,-15.09489 239.20778,-32.93664 307.58796,29.51901 C 686.21772,-113.965 665.73968,28.78077 630.3552,87.215783 594.97071,145.6508 544.68411,119.76769 511.42229,104.89984 478.16048,90.031988 461.92717,86.181151 441.87754,97.939348 421.82792,109.69755 397.96543,137.06276 382.758,139.75609 367.55058,142.44941 361.00082,120.46973 342.31079,105.7149 323.62077,90.960062 292.79165,83.431794 269.06471,94.91279 c -23.72693,11.481 -40.34936,41.96977 -57.14061,47.08993 -16.79125,5.12016 -33.74902,-15.12939 -49.96387,-47.962017 C 145.74539,61.208072 130.27549,15.79648 107.81067,-39.426097 85.345847,-94.648674 55.88876,-159.67572 72.562313,-182.4316 c 16.673554,-22.75588 79.476727,-3.23768 114.236207,0.34794 z"
       id="path7398-9"
       sodipodi:nodetypes="cccccccccccccc"
       inkscape:original-d="m 214.8434,-166.15072 c 6.71469,-12.34726 13.42898,-24.69399 20.14328,-37.04097 157.24017,-17.84308 314.47065,-35.68483 471.71028,-53.52738 C 686.21794,-113.96497 665.7399,28.780802 645.26035,171.53547 594.97066,145.6509 544.68406,119.76779 494.39439,93.882968 478.16043,90.03218 461.92712,86.181343 445.69246,82.329983 421.8282,109.69779 397.96571,137.06301 374.10075,164.43048 367.55075,142.44936 361.00099,120.46968 354.4506,98.488505 323.62072,90.960251 292.7916,83.431983 261.9612,75.903202 245.3381,106.39396 228.71567,136.88273 212.09165,167.37366 195.13287,147.12286 178.17511,126.87331 161.21626,106.62253 145.74571,61.207962 130.27581,15.796372 114.80473,-29.617659 85.34617,-94.64882 55.889082,-159.67587 26.429976,-224.70652 c 62.805987,19.51873 125.609164,39.03692 188.413424,58.5558 z"
       inkscape:path-effect="#path-effect7400-2" />
    <path
       style="display:inline;fill:#009696;fill-opacity:1;stroke:#000000;stroke-width:0.264583px;stroke-linecap:butt;stroke-linejoin:miter;stroke-opacity:1"
       d="m 182.08624,-196.95681 c 34.75948,3.58563 41.47377,-8.7611 123.45106,-23.85599 81.9773,-15.09489 239.20778,-32.93664 307.58796,29.51901 68.38018,62.45564 47.90214,205.20141 16.02387,266.883262 C 597.27086,137.27132 553.99621,117.88148 522.63805,103.53354 491.27988,89.185591 471.84171,79.881148 448.40562,90.026816 424.96952,100.17248 397.53947,129.76652 383.80536,134.1394 370.07126,138.51228 370.03561,117.66264 352.3903,102.15718 334.74499,86.651722 299.49088,76.49211 272.82632,86.674818 246.16177,96.857527 228.08935,127.38117 210.87332,131.61279 193.65729,135.8444 177.30044,113.7835 161.38569,80.044631 145.47094,46.305758 130.00131,0.89493997 106.7967,-54.323163 83.592095,-109.54127 52.655786,-174.5586 68.589688,-197.30961 c 15.933902,-22.75102 78.737072,-3.23282 113.496552,0.3528 z"
       id="path7398-5-3"
       sodipodi:nodetypes="cccccccccccccc"
       inkscape:original-d="m 210.13112,-181.02387 c 6.7147,-12.34726 13.42898,-24.69399 20.14328,-37.04097 157.24017,-17.84308 314.47065,-35.68483 471.71028,-53.52738 -20.47902,142.7541 -40.95706,285.499872 -61.43661,428.25454 C 597.2708,137.27145 553.99616,117.8816 510.71883,98.490406 491.27983,89.185704 471.84166,79.881261 452.40192,70.575927 424.9698,100.17274 397.53974,129.76677 370.1069,159.36326 370.0715,138.51228 370.0359,117.66264 369.99997,96.811584 334.74494,86.651895 299.49083,76.492283 264.23526,66.332063 246.16208,96.857711 228.08967,127.38136 210.01554,157.90718 193.65734,135.84436 177.30048,113.78347 160.94181,91.720218 145.4711,46.305704 130.00147,0.89488644 114.53029,-44.519972 83.592209,-109.54132 52.6559,-174.55865 21.717695,-239.57967 c 62.805992,19.51873 125.609165,39.03692 188.413425,58.5558 z"
       inkscape:path-effect="#path-effect7400-3-6"
       inkscape:export-filename="/home/ogyun/Documents/site/cj1063-s-websites-testing/assets/Wallpaper-32.png"
       inkscape:export-xdpi="96"
       inkscape:export-ydpi="96" />
    <path
       style="display:inline;fill:#008787;fill-opacity:1;stroke:#000000;stroke-width:0.264583px;stroke-linecap:butt;stroke-linejoin:miter;stroke-opacity:1"
       d="m 71.14487,119.54684 c -21.848831,11.9854 -45.81369,69.29058 -35.39677,99.45242 10.41692,30.16184 55.21445,33.17805 77.06302,21.19241 21.84856,-11.98563 20.7476,-38.97179 10.33094,-69.13366 -10.41667,-30.16187 -30.148359,-63.49657 -51.99719,-51.51117 z"
       id="path7169"
       inkscape:original-d="M 73.261435,74.225769 C 49.296359,131.53237 25.331499,188.83755 1.365417,246.14476 c 44.799586,3.01659 89.597117,6.03279 134.395283,9.04879 -1.10076,-26.98752 -2.20173,-53.97368 -3.30302,-80.96171 C 112.72547,140.89609 92.993782,107.56139 73.261435,74.225769 Z"
       inkscape:path-effect="#path-effect7171"
       sodipodi:nodetypes="ccccc"
       inkscape:export-filename="/home/ogyun/Documents/site/cj1063-s-websites-testing/assets/Wallpapers/Wallpaper-32.png"
       inkscape:export-xdpi="96"
       inkscape:export-ydpi="96" />
    <path
       style="display:inline;fill:#008787;fill-opacity:1;stroke:#000000;stroke-width:0.344122px;stroke-linecap:butt;stroke-linejoin:miter;stroke-opacity:1"
       d="M 213.90176,123.60864 C 238.93021,113.78779 264.29056,42.917293 251.01378,-0.10289093 237.737,-43.123075 185.82328,-58.286271 160.79537,-48.465464 c -25.02791,9.820807 -23.16928,44.6247335 -9.89243,87.644289 13.27684,43.019556 37.97037,94.250665 62.99882,84.429815 z"
       id="path7169-0"
       sodipodi:nodetypes="ccccc"
       inkscape:export-filename="/home/ogyun/Documents/site/cj1063-s-websites-testing/assets/Wallpapers/Wallpaper-32.png"
       inkscape:export-xdpi="96"
       inkscape:export-ydpi="96"
       inkscape:original-d="M 213.5681,184.66319 C 238.93053,113.7879 264.29088,42.917407 289.65306,-27.959196 237.73695,-43.122904 185.82323,-58.286099 133.90878,-73.449694 c 1.85893,34.805024 3.71756,69.6089502 5.57599,104.413905 24.69512,51.234117 49.38866,102.465219 74.08333,153.698979 z"
       inkscape:path-effect="#path-effect7171-6" />
    <path
       style="display:inline;fill:#007d7d;fill-opacity:1;stroke:#000000;stroke-width:0.264583px;stroke-linecap:butt;stroke-linejoin:miter;stroke-opacity:1"
       d="m 442.18383,203.62867 c -79.78935,11.25614 -195.5833,43.15549 -197.7405,70.86892 -2.15721,27.71342 109.31772,51.23987 189.10734,39.98318 79.78962,-11.25669 127.89008,-57.29509 130.04817,-85.00828 2.15809,-27.71319 -41.62567,-37.09996 -121.41501,-25.84382 z"
       id="path10421"
       inkscape:original-d="m 478.18824,182.98551 c -115.79367,31.89962 -231.58762,63.79897 -347.38183,95.69805 111.47967,23.52764 222.9546,47.0541 334.43151,70.58075 48.10263,-46.03996 96.20308,-92.07836 144.30423,-138.11793 -43.78526,-9.38688 -87.56902,-18.77365 -131.35391,-28.16087 z"
       inkscape:path-effect="#path-effect10423" />
    <path
       style="display:inline;fill:#007d7d;fill-opacity:1;stroke:#000000;stroke-width:0.264583px;stroke-linecap:butt;stroke-linejoin:miter;stroke-opacity:1"
       d="m 517.34193,-9.73452 c -63.56286,-12.294618 -169.84535,21.5704 -171.59765,45.876959 -1.7523,24.306558 101.02355,39.052327 164.58771,51.347053 63.56416,12.294725 87.90903,22.136858 89.6613,-2.169568 C 601.74555,61.0135 580.90479,2.5600975 517.34193,-9.73452 Z"
       id="path12708"
       sodipodi:nodetypes="ccccc"
       inkscape:original-d="M 560.06351,-55.894777 C 453.77917,-22.028821 347.49668,11.836196 241.20968,45.702303 343.99195,60.449219 446.7678,75.194987 549.54952,89.941372 573.8961,99.784353 598.24097,109.62648 622.58703,119.46894 601.7457,61.013446 580.90494,2.5600444 560.06351,-55.894777 Z"
       inkscape:path-effect="#path-effect12712" />
    <path
       style="fill:#00ffff;stroke:#000000;stroke-width:0.264583px;stroke-linecap:butt;stroke-linejoin:miter;stroke-opacity:1"
       d="m 24.169941,18.64025 c 13.665346,-9.836921 41.28177,-9.836921 55.089851,1.94e-4 13.80808,9.837115 13.80808,29.510296 0.142722,39.34695 C 65.737157,67.824048 38.407271,67.824048 24.598926,57.987198 10.790581,48.150349 10.504595,28.477171 24.169941,18.64025 Z"
       id="path14940"
       inkscape:original-d="m 10.2186,8.803329 c 27.616687,2.646e-4 55.233111,2.646e-4 82.849272,0 2.64e-4,19.67423 2.64e-4,39.347411 0,59.020719 -27.330715,2.64e-4 -54.660601,2.64e-4 -81.991298,0 C 10.790842,48.150345 10.504856,28.477167 10.2186,8.803329 Z"
       inkscape:path-effect="#path-effect14942" />
  </g>
</svg>
