<?xml version="1.0" encoding="UTF-8" standalone="no"?>
<!-- Created with Inkscape (http://www.inkscape.org/) -->

<svg
   width="1920"
   height="1080"
   viewBox="0 0 508 285.75"
   version="1.1"
   id="svg5"
   inkscape:export-filename="/home/ogyun/Documents/site/cj1063-s-websites-testing/assets/Wallpapers/Wallpaper-35.png"
   inkscape:export-xdpi="96"
   inkscape:export-ydpi="96"
   inkscape:version="1.1.2 (0a00cf5339, 2022-02-04)"
   sodipodi:docname="Wallpaper-35-Asset.svg"
   xmlns:inkscape="http://www.inkscape.org/namespaces/inkscape"
   xmlns:sodipodi="http://sodipodi.sourceforge.net/DTD/sodipodi-0.dtd"
   xmlns="http://www.w3.org/2000/svg"
   xmlns:svg="http://www.w3.org/2000/svg">
  <sodipodi:namedview
     id="namedview7"
     pagecolor="#505050"
     bordercolor="#eeeeee"
     borderopacity="1"
     inkscape:pageshadow="0"
     inkscape:pageopacity="0"
     inkscape:pagecheckerboard="0"
     inkscape:document-units="mm"
     showgrid="false"
     units="px"
     inkscape:snap-bbox="true"
     inkscape:bbox-paths="true"
     inkscape:bbox-nodes="true"
     inkscape:snap-bbox-midpoints="true"
     inkscape:snap-bbox-edge-midpoints="true"
     inkscape:object-paths="true"
     inkscape:snap-intersection-paths="true"
     inkscape:snap-smooth-nodes="true"
     inkscape:snap-midpoints="true"
     inkscape:snap-object-midpoints="true"
     inkscape:snap-center="true"
     inkscape:snap-text-baseline="true"
     inkscape:snap-page="true"
     inkscape:snap-global="false"
     inkscape:zoom="0.53228931"
     inkscape:cx="953.42888"
     inkscape:cy="523.21171"
     inkscape:window-width="1920"
     inkscape:window-height="1021"
     inkscape:window-x="1366"
     inkscape:window-y="27"
     inkscape:window-maximized="1"
     inkscape:current-layer="layer1" />
  <defs
     id="defs2">
    <inkscape:path-effect
       effect="bspline"
       id="path-effect1127"
       is_visible="true"
       lpeversion="1"
       weight="33.333333"
       steps="2"
       helper_size="0"
       apply_no_weight="true"
       apply_with_weight="true"
       only_selected="false" />
    <inkscape:path-effect
       effect="bspline"
       id="path-effect1121"
       is_visible="true"
       lpeversion="1"
       weight="33.333333"
       steps="2"
       helper_size="0"
       apply_no_weight="true"
       apply_with_weight="true"
       only_selected="false" />
    <inkscape:path-effect
       effect="bspline"
       id="path-effect1115"
       is_visible="true"
       lpeversion="1"
       weight="33.333333"
       steps="2"
       helper_size="0"
       apply_no_weight="true"
       apply_with_weight="true"
       only_selected="false" />
    <inkscape:path-effect
       effect="bspline"
       id="path-effect1109"
       is_visible="true"
       lpeversion="1"
       weight="33.333333"
       steps="2"
       helper_size="0"
       apply_no_weight="true"
       apply_with_weight="true"
       only_selected="false" />
    <inkscape:path-effect
       effect="bspline"
       id="path-effect1103"
       is_visible="true"
       lpeversion="1"
       weight="33.333333"
       steps="2"
       helper_size="0"
       apply_no_weight="true"
       apply_with_weight="true"
       only_selected="false" />
    <inkscape:path-effect
       effect="bspline"
       id="path-effect1097"
       is_visible="true"
       lpeversion="1"
       weight="33.333333"
       steps="2"
       helper_size="0"
       apply_no_weight="true"
       apply_with_weight="true"
       only_selected="false" />
    <inkscape:path-effect
       effect="bspline"
       id="path-effect1091"
       is_visible="true"
       lpeversion="1"
       weight="33.333333"
       steps="2"
       helper_size="0"
       apply_no_weight="true"
       apply_with_weight="true"
       only_selected="false" />
    <inkscape:path-effect
       effect="bspline"
       id="path-effect967"
       is_visible="true"
       lpeversion="1"
       weight="33.333333"
       steps="2"
       helper_size="0"
       apply_no_weight="true"
       apply_with_weight="true"
       only_selected="false" />
    <inkscape:path-effect
       effect="bspline"
       id="path-effect961"
       is_visible="true"
       lpeversion="1"
       weight="33.333333"
       steps="2"
       helper_size="0"
       apply_no_weight="true"
       apply_with_weight="true"
       only_selected="false" />
    <inkscape:path-effect
       effect="bspline"
       id="path-effect955"
       is_visible="true"
       lpeversion="1"
       weight="33.333333"
       steps="2"
       helper_size="0"
       apply_no_weight="true"
       apply_with_weight="true"
       only_selected="false" />
    <inkscape:path-effect
       effect="bspline"
       id="path-effect949"
       is_visible="true"
       lpeversion="1"
       weight="33.333333"
       steps="2"
       helper_size="0"
       apply_no_weight="true"
       apply_with_weight="true"
       only_selected="false" />
    <inkscape:path-effect
       effect="bspline"
       id="path-effect943"
       is_visible="true"
       lpeversion="1"
       weight="33.333333"
       steps="2"
       helper_size="0"
       apply_no_weight="true"
       apply_with_weight="true"
       only_selected="false" />
    <inkscape:path-effect
       effect="bspline"
       id="path-effect661"
       is_visible="true"
       lpeversion="1"
       weight="33.333333"
       steps="2"
       helper_size="0"
       apply_no_weight="true"
       apply_with_weight="true"
       only_selected="false" />
    <inkscape:path-effect
       effect="bspline"
       id="path-effect68"
       is_visible="true"
       lpeversion="1"
       weight="33.333333"
       steps="2"
       helper_size="0"
       apply_no_weight="true"
       apply_with_weight="true"
       only_selected="false" />
    <inkscape:path-effect
       effect="bspline"
       id="path-effect661-3"
       is_visible="true"
       lpeversion="1"
       weight="33.333333"
       steps="2"
       helper_size="0"
       apply_no_weight="true"
       apply_with_weight="true"
       only_selected="false" />
    <inkscape:path-effect
       effect="bspline"
       id="path-effect661-3-7"
       is_visible="true"
       lpeversion="1"
       weight="33.333333"
       steps="2"
       helper_size="0"
       apply_no_weight="true"
       apply_with_weight="true"
       only_selected="false" />
  </defs>
  <g
     inkscape:label="Layer 1"
     inkscape:groupmode="layer"
     id="layer1">
    <rect
       style="fill:#442178;stroke:#000000;stroke-width:0.327001;stroke-linecap:round;stroke-linejoin:round"
       id="rect31"
       width="508"
       height="285.75"
       x="0"
       y="0" />
    <path
       style="fill:#8d5fd3;stroke:#000000;stroke-width:0.264583px;stroke-linecap:butt;stroke-linejoin:miter;stroke-opacity:1"
       d="m 6.0053284,135.62297 c 30.6148106,1.71946 68.5961216,7.28178 87.8033166,22.80705 19.207195,15.52526 19.640545,41.01224 35.735325,57.3921 16.09478,16.37986 47.84943,23.65201 83.08557,27.28812 35.23614,3.63611 73.95164,3.63611 94.99374,9.92123 21.0421,6.28512 24.41007,18.85454 26.09405,28.61202 1.68398,9.75748 1.68398,16.70252 -69.34003,23.51965 -71.024,6.81714 -213.069644,13.50638 -280.822391,-14.3508 -67.752747,-27.85717 -61.207014,-90.25876 -46.309593,-122.52208 14.89742,-32.26331 38.145202,-34.38675 68.7600124,-32.66729 z"
       id="path659"
       inkscape:path-effect="#path-effect661"
       inkscape:original-d="m -1.3614727,131.78006 c 37.9815787,5.56259 75.9628907,11.12491 113.9439427,16.68697 0.43363,25.48825 0.86698,50.97523 1.30007,76.46245 31.75617,7.2727 63.51081,14.54485 95.26583,21.81687 38.71731,2.7e-4 77.43281,2.7e-4 116.14882,0 3.36838,12.57019 6.73634,25.13961 10.10412,37.70901 2.6e-4,6.94561 2.6e-4,13.89065 0,20.83557 -142.048,6.68963 -284.093641,13.37886 -426.14512,20.0681 6.546261,-62.40383 13.091994,-124.80542 19.637596,-187.20854 23.248977,-2.12325 46.496759,-4.24668 69.7447413,-6.37043 z"
       sodipodi:nodetypes="cccccccccc" />
    <path
       style="opacity:0.5;fill:#5a2ca0;stroke:#000000;stroke-width:0.264583px;stroke-linecap:butt;stroke-linejoin:miter;stroke-opacity:1"
       d="m -4.6832976,148.66861 c 30.6148106,1.71946 68.5961216,7.28178 87.8033146,22.80704 19.207193,15.52526 19.640543,41.01224 35.735323,57.3921 16.09478,16.37986 47.84944,23.65201 83.08558,27.28812 35.23614,3.63611 73.95164,3.63611 94.99374,9.92123 21.0421,6.28512 24.41007,18.85454 26.09405,28.61202 1.68398,9.75748 1.68398,16.70252 -69.34003,23.51965 -71.024,6.81714 -213.06965,13.50638 -280.822394,-14.3508 -67.752744,-27.85717 -61.207011,-90.25876 -46.309593,-122.52207 14.897417,-32.26331 38.145199,-34.38674 68.7600094,-32.66729 z"
       id="path659-6"
       inkscape:path-effect="#path-effect661-3"
       inkscape:original-d="m -12.050099,144.8257 c 37.981579,5.56259 75.962891,11.12491 113.943939,16.68697 0.43363,25.48824 0.86698,50.97522 1.30007,76.46244 31.75617,7.2727 63.51082,14.54485 95.26584,21.81687 38.71731,2.7e-4 77.43281,2.7e-4 116.14882,0 3.36838,12.57019 6.73634,25.13961 10.10412,37.70901 2.6e-4,6.94561 2.6e-4,13.89065 0,20.83557 -142.048,6.68963 -284.093647,13.37886 -426.14512,20.0681 6.546255,-62.40383 13.091985,-124.80542 19.637595,-187.20853 23.248972,-2.12325 46.496754,-4.24668 69.744736,-6.37043 z"
       sodipodi:nodetypes="cccccccccc" />
    <path
       style="opacity:0.5;fill:#5a2ca0;stroke:#000000;stroke-width:0.264583px;stroke-linecap:butt;stroke-linejoin:miter;stroke-opacity:1"
       d="m -19.490759,158.55291 c 30.614811,1.71946 68.596122,7.28178 87.803315,22.80704 19.207193,15.52526 19.640541,41.01224 35.735324,57.3921 16.09478,16.37986 47.84944,23.65201 83.08558,27.28812 35.23614,3.63611 73.95164,3.63611 94.99374,9.92123 21.0421,6.28512 24.41007,18.85454 26.09405,28.61202 1.68398,9.75748 1.68398,16.70252 -69.34003,23.51965 -71.024,6.81714 -213.069651,13.50638 -280.822396,-14.3508 -67.752744,-27.85717 -61.207014,-90.25876 -46.309594,-122.52207 14.897419,-32.26331 38.145201,-34.38675 68.760011,-32.66729 z"
       id="path659-6-5"
       inkscape:path-effect="#path-effect661-3-7"
       inkscape:original-d="m -26.85756,154.71 c 37.981579,5.56259 75.962891,11.12491 113.943939,16.68697 0.43363,25.48824 0.86698,50.97522 1.30007,76.46244 31.756171,7.2727 63.510821,14.54485 95.265841,21.81687 38.71731,2.7e-4 77.43281,2.7e-4 116.14882,0 3.36838,12.57019 6.73634,25.13961 10.10412,37.70901 2.6e-4,6.94561 2.6e-4,13.89065 0,20.83557 -142.048,6.68963 -284.093648,13.37886 -426.14512,20.0681 6.54625,-62.40383 13.09198,-124.80542 19.637589,-187.20853 23.248977,-2.12325 46.496759,-4.24668 69.744741,-6.37043 z"
       sodipodi:nodetypes="cccccccccc" />
    <path
       style="opacity:0.5;fill:#5a2ca0;stroke:#000000;stroke-width:0.264583px;stroke-linecap:butt;stroke-linejoin:miter;stroke-opacity:1"
       d="m -34.6678,168.32936 c 30.6148107,1.71946 68.596122,7.28178 87.803315,22.80704 19.207193,15.52526 19.640541,41.01224 35.735325,57.3921 16.09478,16.37986 47.84944,23.65201 83.08558,27.28812 35.23614,3.63611 73.95164,3.63611 94.99374,9.92123 21.0421,6.28512 24.41007,18.85454 26.09405,28.61202 1.68398,9.75748 1.68398,16.70252 -69.34003,23.51965 -71.024,6.81714 -213.069652,13.50638 -280.822396,-14.3508 -67.752744,-27.85717 -61.207014,-90.25876 -46.309594,-122.52207 14.897418,-32.26331 38.1452,-34.38675 68.76001,-32.66729 z"
       id="path939"
       inkscape:path-effect="#path-effect943"
       inkscape:original-d="m -42.034601,164.48645 c 37.9815791,5.56259 75.962891,11.12491 113.943939,16.68697 0.43363,25.48824 0.86698,50.97522 1.30007,76.46244 31.756172,7.2727 63.510822,14.54485 95.265842,21.81687 38.71731,2.7e-4 77.43281,2.7e-4 116.14882,0 3.36838,12.57019 6.73634,25.13961 10.10412,37.70901 2.6e-4,6.94561 2.6e-4,13.89065 0,20.83557 -142.048,6.68963 -284.093649,13.37886 -426.14512,20.0681 6.54625,-62.40383 13.09198,-124.80542 19.63759,-187.20853 23.248975,-2.12325 46.496757,-4.24668 69.744739,-6.37043 z"
       sodipodi:nodetypes="cccccccccc" />
    <path
       style="opacity:0.5;fill:#5a2ca0;stroke:#000000;stroke-width:0.264583px;stroke-linecap:butt;stroke-linejoin:miter;stroke-opacity:1"
       d="m -53.557248,176.92112 c 30.614811,1.71946 68.596122,7.28178 87.803315,22.80704 19.207193,15.52526 19.640541,41.01224 35.735325,57.3921 16.094785,16.37986 47.849438,23.65201 83.085578,27.28812 35.23614,3.63611 73.95164,3.63611 94.99374,9.92123 21.0421,6.28512 24.41007,18.85454 26.09405,28.61202 1.68398,9.75748 1.68398,16.70252 -69.34003,23.51965 -71.024,6.81714 -213.0696495,13.50638 -280.822395,-14.3508 -67.752745,-27.85717 -61.207015,-90.25876 -46.309595,-122.52207 14.89742,-32.26331 38.145202,-34.38675 68.760012,-32.66729 z"
       id="path945"
       inkscape:path-effect="#path-effect949"
       inkscape:original-d="m -60.924049,173.07821 c 37.981579,5.56259 75.962891,11.12491 113.943939,16.68697 0.43363,25.48824 0.86698,50.97522 1.30007,76.46244 31.756172,7.2727 63.51082,14.54485 95.26584,21.81687 38.71731,2.7e-4 77.43281,2.7e-4 116.14882,0 3.36838,12.57019 6.73634,25.13961 10.10412,37.70901 2.6e-4,6.94561 2.6e-4,13.89065 0,20.83557 -142.048,6.68963 -284.0936467,13.37886 -426.14512,20.0681 6.54625,-62.40383 13.09198,-124.80542 19.63759,-187.20853 23.24898,-2.12325 46.496759,-4.24668 69.744741,-6.37043 z"
       sodipodi:nodetypes="cccccccccc" />
    <path
       style="opacity:0.5;fill:#5a2ca0;stroke:#000000;stroke-width:0.264583px;stroke-linecap:butt;stroke-linejoin:miter;stroke-opacity:1"
       d="m -70.977157,186.6098 c 30.614811,1.71946 68.5961221,7.28178 87.803315,22.80704 19.207193,15.52526 19.640541,41.01224 35.735325,57.3921 16.094785,16.37986 47.849437,23.65201 83.085577,27.28812 35.23614,3.63611 73.95164,3.63611 94.99374,9.92123 21.0421,6.28512 24.41007,18.85454 26.09405,28.61202 1.68398,9.75748 1.68398,16.70252 -69.34003,23.51965 -71.024,6.81714 -213.069649,13.50638 -280.822394,-14.3508 -67.752746,-27.85717 -61.207016,-90.25876 -46.309596,-122.52207 14.89742,-32.26331 38.1452,-34.38675 68.760013,-32.66729 z"
       id="path951"
       inkscape:path-effect="#path-effect955"
       inkscape:original-d="m -78.343958,182.76689 c 37.981579,5.56259 75.9628909,11.12491 113.943939,16.68697 0.43363,25.48824 0.86698,50.97522 1.30007,76.46244 31.756172,7.2727 63.510819,14.54485 95.265839,21.81687 38.71731,2.7e-4 77.43281,2.7e-4 116.14882,0 3.36838,12.57019 6.73634,25.13961 10.10412,37.70901 2.6e-4,6.94561 2.6e-4,13.89065 0,20.83557 -142.048,6.68963 -284.093646,13.37886 -426.14512,20.0681 6.54625,-62.40383 13.09198,-124.80542 19.63759,-187.20853 23.24898,-2.12325 46.49676,-4.24668 69.744742,-6.37043 z"
       sodipodi:nodetypes="cccccccccc" />
    <path
       style="opacity:0.35;fill:#442178;stroke:#000000;stroke-width:0.264583px;stroke-linecap:butt;stroke-linejoin:miter;stroke-opacity:1"
       d="m -87.383878,194.95251 c 30.614809,1.71946 68.59612,7.28178 87.80331293,22.80704 19.20719307,15.52526 19.64054107,41.01224 35.73532507,57.3921 16.094785,16.37986 47.849433,23.65201 83.08558,27.28812 35.23614,3.63611 73.95164,3.63611 94.99374,9.92123 21.0421,6.28512 24.41007,18.85454 26.09405,28.61202 1.68398,9.75748 1.68398,16.70252 -69.34003,23.51965 -71.024006,6.81714 -213.069652,13.50638 -280.8224,-14.3508 -67.75274,-27.85717 -61.20701,-90.25876 -46.30959,-122.52207 14.89742,-32.26331 38.1452,-34.38675 68.760012,-32.66729 z"
       id="path957"
       inkscape:path-effect="#path-effect961"
       inkscape:original-d="m -94.750681,191.1096 c 37.981579,5.56259 75.962891,11.12491 113.943939,16.68697 0.43363,25.48824 0.86698,50.97522 1.30007,76.46244 31.756172,7.2727 63.510819,14.54485 95.265842,21.81687 38.71731,2.7e-4 77.43281,2.7e-4 116.14882,0 3.36838,12.57019 6.73634,25.13961 10.10412,37.70901 2.6e-4,6.94561 2.6e-4,13.89065 0,20.83557 -142.048003,6.68963 -284.093649,13.37886 -426.14512,20.0681 6.54625,-62.40383 13.09198,-124.80542 19.63759,-187.20853 23.24898,-2.12325 46.49676,-4.24668 69.744739,-6.37043 z"
       sodipodi:nodetypes="cccccccccc" />
    <path
       style="fill:#8d5fd3;stroke:#000000;stroke-width:0.264583px;stroke-linecap:butt;stroke-linejoin:miter;stroke-opacity:1"
       d="M 502.15814,149.96353 C 471.54333,148.24407 433.56202,142.68175 414.35482,127.15648 395.14762,111.63122 394.71427,86.144236 378.61949,69.764375 362.52471,53.384515 330.77006,46.112371 295.53392,42.47626 260.29778,38.84015 221.58228,38.84015 200.54018,32.55503 179.49808,26.26991 176.13011,13.700497 174.44613,3.9430157 c -1.68398,-9.7574814 -1.68398,-16.7025217 69.34003,-23.5196567 71.024,-6.817135 213.06964,-13.506373 280.82239,14.3507994 67.75275,27.8571716 61.20702,90.2587616 46.3096,122.5220816 -14.89742,32.26331 -38.1452,34.38675 -68.76001,32.66729 z"
       id="path1087"
       inkscape:path-effect="#path-effect1091"
       inkscape:original-d="m 509.52494,153.80644 c -37.98158,-5.56259 -75.96289,-11.12491 -113.94395,-16.68697 -0.43363,-25.48825 -0.86698,-50.97523 -1.30007,-76.46245 -31.75617,-7.2727 -63.51081,-14.54485 -95.26583,-21.81687 -38.71731,-2.7e-4 -77.43281,-2.7e-4 -116.14882,0 -3.36838,-12.57019 -6.73634,-25.139606 -10.10412,-37.7090057 -2.6e-4,-6.94561 -2.6e-4,-13.8906503 0,-20.8355703 142.048,-6.68963 284.09364,-13.37886 426.14512,-20.0681 -6.54626,62.403826 -13.09199,124.805416 -19.63759,187.208536 -23.24898,2.12325 -46.49676,4.24668 -69.74474,6.37043 z"
       sodipodi:nodetypes="cccccccccc" />
    <path
       style="opacity:0.5;fill:#5a2ca0;stroke:#000000;stroke-width:0.264583px;stroke-linecap:butt;stroke-linejoin:miter;stroke-opacity:1"
       d="M 512.84676,136.91789 C 482.23195,135.19843 444.25064,129.63611 425.04344,114.11085 405.83625,98.585586 405.4029,73.098606 389.30812,56.718746 373.21334,40.338886 341.45868,33.06674 306.22254,29.43063 270.9864,25.79452 232.2709,25.79452 211.2288,19.509402 190.1867,13.224284 186.81873,0.65486732 185.13475,-9.1026143 c -1.68398,-9.7574817 -1.68398,-16.7025217 69.34003,-23.5196567 71.024,-6.817135 213.06965,-13.506373 280.8224,14.350801 67.75274,27.8571737 61.20701,90.258759 46.30959,122.52207 -14.89741,32.26331 -38.1452,34.38675 -68.76001,32.66729 z"
       id="path1093"
       inkscape:path-effect="#path-effect1097"
       inkscape:original-d="m 520.21356,140.7608 c -37.98158,-5.56259 -75.96289,-11.12491 -113.94394,-16.68697 -0.43363,-25.48824 -0.86698,-50.97522 -1.30007,-76.46244 -31.75617,-7.2727 -63.51082,-14.54485 -95.26584,-21.81687 -38.71731,-2.7e-4 -77.43281,-2.7e-4 -116.14882,0 -3.36838,-12.570186 -6.73634,-25.13960565 -10.10412,-37.709006 -2.6e-4,-6.94561 -2.6e-4,-13.89065 0,-20.83557 142.048,-6.68963 284.09365,-13.37886 426.14512,-20.0681 -6.54625,62.4038303 -13.09198,124.805416 -19.63759,187.208526 -23.24897,2.12325 -46.49676,4.24668 -69.74474,6.37043 z"
       sodipodi:nodetypes="cccccccccc" />
    <path
       style="opacity:0.5;fill:#5a2ca0;stroke:#000000;stroke-width:0.264583px;stroke-linecap:butt;stroke-linejoin:miter;stroke-opacity:1"
       d="M 527.65422,127.03359 C 497.03941,125.31413 459.0581,119.75181 439.8509,104.22655 420.64371,88.701286 420.21036,63.214306 404.11558,46.834446 388.0208,30.454586 356.26614,23.18244 321.03,19.54633 285.79386,15.91022 247.07836,15.91022 226.03626,9.625102 204.99416,3.3399839 201.62619,-9.2294327 199.94221,-18.986914 c -1.68398,-9.757482 -1.68398,-16.702522 69.34003,-23.519657 71.024,-6.817135 213.06965,-13.506373 280.8224,14.350801 67.75274,27.85717371 61.20701,90.258759 46.30959,122.52207 -14.89741,32.26331 -38.14519,34.38674 -68.76001,32.66729 z"
       id="path1099"
       inkscape:path-effect="#path-effect1103"
       inkscape:original-d="m 535.02102,130.8765 c -37.98158,-5.56259 -75.96289,-11.12491 -113.94394,-16.68697 -0.43363,-25.48824 -0.86698,-50.97522 -1.30007,-76.46244 -31.75617,-7.2727 -63.51082,-14.54485 -95.26584,-21.81687 -38.71731,-2.7e-4 -77.43281,-2.7e-4 -116.14882,0 -3.36838,-12.5701857 -6.73634,-25.1396057 -10.10412,-37.709006 -2.6e-4,-6.94561 -2.6e-4,-13.89065 0,-20.83557 142.048,-6.68963 284.09365,-13.37886 426.14512,-20.0681 -6.54625,62.40383035 -13.09198,124.805416 -19.63759,187.208526 -23.24897,2.12325 -46.49675,4.24668 -69.74474,6.37043 z"
       sodipodi:nodetypes="cccccccccc" />
    <path
       style="opacity:0.5;fill:#5a2ca0;stroke:#000000;stroke-width:0.264583px;stroke-linecap:butt;stroke-linejoin:miter;stroke-opacity:1"
       d="M 542.83127,117.25714 C 512.21646,115.53768 474.23514,109.97536 455.02795,94.450097 435.82076,78.924836 435.38741,53.437856 419.29262,37.057996 403.19784,20.678136 371.44318,13.405992 336.20704,9.7698832 300.9709,6.1337743 262.2554,6.1337743 241.2133,-0.15134579 220.1712,-6.4364659 216.80323,-19.005883 215.11925,-28.763364 c -1.68398,-9.757482 -1.68398,-16.702522 69.34003,-23.519657 71.024,-6.817135 213.06965,-13.506373 280.8224,14.350801 67.75274,27.857173 61.20701,90.258759 46.30959,122.52207 -14.89741,32.26331 -38.14519,34.38674 -68.76,32.66729 z"
       id="path1105"
       inkscape:path-effect="#path-effect1109"
       inkscape:original-d="M 550.19806,121.10005 C 512.21649,115.53746 474.23517,109.97514 436.25413,104.41308 435.8205,78.92484 435.38715,53.43786 434.95406,27.95064 403.19788,20.67794 371.44323,13.405794 339.68821,6.1337743 c -38.71731,-2.7e-4 -77.43281,-2.7e-4 -116.14882,0 -3.36838,-12.57019 -6.73634,-25.1396103 -10.10412,-37.7090103 -2.6e-4,-6.94561 -2.6e-4,-13.89065 0,-20.83557 142.048,-6.68963 284.09365,-13.37886 426.14512,-20.0681 -6.54625,62.40383 -13.09198,124.805416 -19.63759,187.208526 -23.24897,2.12325 -46.49675,4.24668 -69.74474,6.37043 z"
       sodipodi:nodetypes="cccccccccc" />
    <path
       style="opacity:0.5;fill:#5a2ca0;stroke:#000000;stroke-width:0.264583px;stroke-linecap:butt;stroke-linejoin:miter;stroke-opacity:1"
       d="M 561.72071,108.66538 C 531.1059,106.94592 493.12459,101.3836 473.91739,85.858338 454.7102,70.333076 454.27685,44.846096 438.18207,28.466237 422.08729,12.086377 390.33263,4.8142329 355.09649,1.1781236 319.86035,-2.4579857 281.14485,-2.4579857 260.10275,-8.7431059 239.06065,-15.028226 235.69268,-27.597643 234.0087,-37.355124 c -1.68398,-9.757482 -1.68398,-16.702522 69.34003,-23.519657 71.024,-6.817134 213.06965,-13.506372 280.8224,14.350801 67.75274,27.857173 61.20701,90.258759 46.30959,122.52207 -14.89742,32.26331 -38.1452,34.38675 -68.76001,32.66729 z"
       id="path1111"
       inkscape:path-effect="#path-effect1115"
       inkscape:original-d="M 569.08751,112.50829 C 531.10593,106.9457 493.12462,101.38338 455.14357,95.82132 454.70994,70.33308 454.27659,44.8461 453.8435,19.35888 422.08733,12.086184 390.33268,4.8140343 358.57766,-2.4579857 c -38.71731,-2.7e-4 -77.43281,-2.7e-4 -116.14882,0 -3.36838,-12.5701903 -6.73634,-25.1396103 -10.10412,-37.7090103 -2.6e-4,-6.94561 -2.6e-4,-13.89065 0,-20.83557 142.048,-6.68963 284.09365,-13.37886 426.14512,-20.068099 -6.54625,62.403829 -13.09198,124.805415 -19.63759,187.208525 -23.24898,2.12325 -46.49676,4.24668 -69.74474,6.37043 z"
       sodipodi:nodetypes="cccccccccc" />
    <path
       style="opacity:0.5;fill:#5a2ca0;stroke:#000000;stroke-width:0.264583px;stroke-linecap:butt;stroke-linejoin:miter;stroke-opacity:1"
       d="M 579.14062,98.976699 C 548.52581,97.257243 510.5445,91.69492 491.3373,76.169658 472.13011,60.644396 471.69676,35.157416 455.60198,18.777558 439.5072,2.3977001 407.75254,-4.8744459 372.5164,-8.510556 c -35.23614,-3.63611 -73.95164,-3.63611 -94.99374,-9.92123 -21.0421,-6.28512 -24.41007,-18.854537 -26.09405,-28.612018 -1.68398,-9.757482 -1.68398,-16.702522 69.34003,-23.519657 71.024,-6.817134 213.06965,-13.506372 280.8224,14.350801 67.75274,27.857173 61.20701,90.258759 46.30959,122.52207 -14.89742,32.263311 -38.1452,34.38675 -68.76001,32.667289 z"
       id="path1117"
       inkscape:path-effect="#path-effect1121"
       inkscape:original-d="M 586.50742,102.81961 C 548.52584,97.25702 510.54453,91.6947 472.56348,86.13264 472.12985,60.6444 471.6965,35.15742 471.26341,9.6702043 c -31.75617,-7.2727 -63.51082,-14.54485 -95.26584,-21.8168703 -38.71731,-2.7e-4 -77.43281,-2.7e-4 -116.14882,0 -3.36838,-12.57019 -6.73634,-25.13961 -10.10412,-37.70901 -2.6e-4,-6.94561 -2.6e-4,-13.89065 0,-20.83557 142.048,-6.689629 284.09365,-13.378859 426.14512,-20.068099 -6.54625,62.403829 -13.09198,124.805415 -19.63759,187.208525 -23.24898,2.12325 -46.49676,4.24668 -69.74474,6.37043 z"
       sodipodi:nodetypes="cccccccccc" />
    <path
       style="opacity:0.35;fill:#442178;stroke:#000000;stroke-width:0.264583px;stroke-linecap:butt;stroke-linejoin:miter;stroke-opacity:1"
       d="M 595.54734,90.63399 C 564.93254,88.914534 526.95122,83.352209 507.74403,67.826947 488.53684,52.301686 488.10349,26.814706 472.0087,10.434847 455.91392,-5.9450113 424.15927,-13.217154 388.92313,-16.853265 c -35.23615,-3.636111 -73.95165,-3.636111 -94.99375,-9.921231 -21.0421,-6.28512 -24.41007,-18.854537 -26.09405,-28.612018 -1.68398,-9.757482 -1.68398,-16.702522 69.34003,-23.519657 71.02401,-6.817134 213.06965,-13.506372 280.8224,14.350801 67.75274,27.857173 61.20701,90.258759 46.30959,122.52207 -14.89742,32.263311 -38.1452,34.386745 -68.76001,32.66729 z"
       id="path1123"
       inkscape:path-effect="#path-effect1127"
       inkscape:original-d="M 602.91414,94.4769 C 564.93257,88.91431 526.95125,83.35199 488.97021,77.78993 488.53658,52.30169 488.10323,26.81471 487.67014,1.3274943 c -31.75618,-7.2727 -63.51082,-14.5448503 -95.26585,-21.8168703 -38.71731,-2.7e-4 -77.43281,-2.7e-4 -116.14882,0 -3.36838,-12.57019 -6.73634,-25.13961 -10.10412,-37.70901 -2.6e-4,-6.94561 -2.6e-4,-13.89065 0,-20.835569 142.04801,-6.68963 284.09365,-13.37886 426.14512,-20.0681 -6.54625,62.403829 -13.09198,124.805415 -19.63759,187.208525 -23.24898,2.12325 -46.49676,4.24668 -69.74474,6.37043 z"
       sodipodi:nodetypes="cccccccccc" />
  </g>
</svg>
