<?xml version="1.0" encoding="UTF-8" standalone="no"?>
<!-- Created with Inkscape (http://www.inkscape.org/) -->

<svg
   width="480"
   height="1080"
   viewBox="0 0 127 285.75"
   version="1.1"
   id="svg12473"
   inkscape:export-filename="/home/ogyun/Documents/site/cj1063-s-websites-testing/assets/Wallpapers/Wallpapers-33.png"
   inkscape:export-xdpi="96"
   inkscape:export-ydpi="96"
   inkscape:version="1.1.2 (0a00cf5339, 2022-02-04)"
   sodipodi:docname="Wallpaper-33-Asset.svg"
   xmlns:inkscape="http://www.inkscape.org/namespaces/inkscape"
   xmlns:sodipodi="http://sodipodi.sourceforge.net/DTD/sodipodi-0.dtd"
   xmlns="http://www.w3.org/2000/svg"
   xmlns:svg="http://www.w3.org/2000/svg">
  <sodipodi:namedview
     id="namedview12475"
     pagecolor="#505050"
     bordercolor="#eeeeee"
     borderopacity="1"
     inkscape:pageshadow="0"
     inkscape:pageopacity="0"
     inkscape:pagecheckerboard="0"
     inkscape:document-units="mm"
     showgrid="false"
     units="px"
     inkscape:snap-bbox="true"
     inkscape:bbox-paths="true"
     inkscape:bbox-nodes="true"
     inkscape:snap-bbox-edge-midpoints="true"
     inkscape:snap-bbox-midpoints="true"
     inkscape:object-paths="true"
     inkscape:snap-intersection-paths="true"
     inkscape:snap-smooth-nodes="true"
     inkscape:snap-midpoints="true"
     inkscape:snap-object-midpoints="true"
     inkscape:snap-center="true"
     inkscape:snap-text-baseline="true"
     inkscape:snap-page="true"
     inkscape:snap-global="false"
     inkscape:zoom="0.53228931"
     inkscape:cx="829.43616"
     inkscape:cy="408.61238"
     inkscape:window-width="1920"
     inkscape:window-height="1021"
     inkscape:window-x="1366"
     inkscape:window-y="27"
     inkscape:window-maximized="1"
     inkscape:current-layer="layer1" />
  <defs
     id="defs12470">
    <inkscape:path-effect
       effect="bspline"
       id="path-effect16581"
       is_visible="true"
       lpeversion="1"
       weight="33.333333"
       steps="2"
       helper_size="0"
       apply_no_weight="true"
       apply_with_weight="true"
       only_selected="false" />
    <inkscape:path-effect
       effect="bspline"
       id="path-effect16258"
       is_visible="true"
       lpeversion="1"
       weight="33.333333"
       steps="2"
       helper_size="0"
       apply_no_weight="true"
       apply_with_weight="true"
       only_selected="false" />
    <inkscape:path-effect
       effect="bspline"
       id="path-effect14021"
       is_visible="true"
       lpeversion="1"
       weight="33.333333"
       steps="2"
       helper_size="0"
       apply_no_weight="true"
       apply_with_weight="true"
       only_selected="false" />
    <inkscape:path-effect
       effect="bspline"
       id="path-effect14017"
       is_visible="true"
       lpeversion="1"
       weight="33.333333"
       steps="2"
       helper_size="0"
       apply_no_weight="true"
       apply_with_weight="true"
       only_selected="false" />
    <inkscape:path-effect
       effect="bspline"
       id="path-effect13125"
       is_visible="true"
       lpeversion="1"
       weight="33.333333"
       steps="2"
       helper_size="0"
       apply_no_weight="true"
       apply_with_weight="true"
       only_selected="false" />
    <inkscape:path-effect
       effect="bspline"
       id="path-effect13121"
       is_visible="true"
       lpeversion="1"
       weight="33.333333"
       steps="2"
       helper_size="0"
       apply_no_weight="true"
       apply_with_weight="true"
       only_selected="false" />
    <inkscape:path-effect
       effect="bspline"
       id="path-effect13117"
       is_visible="true"
       lpeversion="1"
       weight="33.333333"
       steps="2"
       helper_size="0"
       apply_no_weight="true"
       apply_with_weight="true"
       only_selected="false" />
    <inkscape:path-effect
       effect="bspline"
       id="path-effect13113"
       is_visible="true"
       lpeversion="1"
       weight="33.333333"
       steps="2"
       helper_size="0"
       apply_no_weight="true"
       apply_with_weight="true"
       only_selected="false" />
    <inkscape:path-effect
       effect="bspline"
       id="path-effect13109"
       is_visible="true"
       lpeversion="1"
       weight="33.333333"
       steps="2"
       helper_size="0"
       apply_no_weight="true"
       apply_with_weight="true"
       only_selected="false" />
    <inkscape:path-effect
       effect="bspline"
       id="path-effect13072"
       is_visible="true"
       lpeversion="1"
       weight="33.333333"
       steps="2"
       helper_size="0"
       apply_no_weight="true"
       apply_with_weight="true"
       only_selected="false" />
    <inkscape:path-effect
       effect="bspline"
       id="path-effect13066"
       is_visible="true"
       lpeversion="1"
       weight="33.333333"
       steps="2"
       helper_size="0"
       apply_no_weight="true"
       apply_with_weight="true"
       only_selected="false" />
    <inkscape:path-effect
       effect="bspline"
       id="path-effect13060"
       is_visible="true"
       lpeversion="1"
       weight="33.333333"
       steps="2"
       helper_size="0"
       apply_no_weight="true"
       apply_with_weight="true"
       only_selected="false" />
    <inkscape:path-effect
       effect="bspline"
       id="path-effect13054"
       is_visible="true"
       lpeversion="1"
       weight="33.333333"
       steps="2"
       helper_size="0"
       apply_no_weight="true"
       apply_with_weight="true"
       only_selected="false" />
    <inkscape:path-effect
       effect="bspline"
       id="path-effect13048"
       is_visible="true"
       lpeversion="1"
       weight="33.333333"
       steps="2"
       helper_size="0"
       apply_no_weight="true"
       apply_with_weight="true"
       only_selected="false" />
    <inkscape:path-effect
       effect="bspline"
       id="path-effect13042"
       is_visible="true"
       lpeversion="1"
       weight="33.333333"
       steps="2"
       helper_size="0"
       apply_no_weight="true"
       apply_with_weight="true"
       only_selected="false" />
    <inkscape:path-effect
       effect="bspline"
       id="path-effect12591"
       is_visible="true"
       lpeversion="1"
       weight="33.333333"
       steps="2"
       helper_size="0"
       apply_no_weight="true"
       apply_with_weight="true"
       only_selected="false" />
    <inkscape:path-effect
       effect="bspline"
       id="path-effect12591-3"
       is_visible="true"
       lpeversion="1"
       weight="33.333333"
       steps="2"
       helper_size="0"
       apply_no_weight="true"
       apply_with_weight="true"
       only_selected="false" />
    <inkscape:path-effect
       effect="bspline"
       id="path-effect12591-3-7"
       is_visible="true"
       lpeversion="1"
       weight="33.333333"
       steps="2"
       helper_size="0"
       apply_no_weight="true"
       apply_with_weight="true"
       only_selected="false" />
    <inkscape:path-effect
       effect="bspline"
       id="path-effect12591-3-3"
       is_visible="true"
       lpeversion="1"
       weight="33.333333"
       steps="2"
       helper_size="0"
       apply_no_weight="true"
       apply_with_weight="true"
       only_selected="false" />
    <inkscape:path-effect
       effect="bspline"
       id="path-effect12591-3-2"
       is_visible="true"
       lpeversion="1"
       weight="33.333333"
       steps="2"
       helper_size="0"
       apply_no_weight="true"
       apply_with_weight="true"
       only_selected="false" />
    <inkscape:path-effect
       effect="bspline"
       id="path-effect12591-3-1"
       is_visible="true"
       lpeversion="1"
       weight="33.333333"
       steps="2"
       helper_size="0"
       apply_no_weight="true"
       apply_with_weight="true"
       only_selected="false" />
    <inkscape:path-effect
       effect="bspline"
       id="path-effect13121-7"
       is_visible="true"
       lpeversion="1"
       weight="33.333333"
       steps="2"
       helper_size="0"
       apply_no_weight="true"
       apply_with_weight="true"
       only_selected="false" />
  </defs>
  <g
     inkscape:label="Layer 1"
     inkscape:groupmode="layer"
     id="layer1">
    <rect
       style="fill:#008080;stroke:#000000;stroke-width:0.327001;stroke-linecap:round;stroke-linejoin:round"
       id="rect12532"
       width="508"
       height="285.75"
       x="0"
       y="0" />
    <path
       style="opacity:0.25;fill:#00ffff;stroke:#000000;stroke-width:0.264583px;stroke-linecap:butt;stroke-linejoin:miter;stroke-opacity:1"
       d="m 7.1263153,84.848909 c 33.7165407,-0.01575 74.5591307,-0.01575 97.6310747,9.465953 23.07194,9.481698 28.3732,28.444028 35.56885,25.934158 7.19565,-2.50986 16.28536,-26.491164 77.88134,-38.482126 61.59599,-11.990962 175.69321,-11.990962 247.2517,-11.990962 71.55849,0 100.57487,0 115.0832,-29.554884 14.50834,-29.554885 14.50834,-88.662554 -97.96415,-118.217111 -112.4725,-29.554557 -337.40877,-29.554557 -449.879283,2.525926 -112.470514,32.080482 -112.470514,96.238621 -99.174872,128.302452 13.295642,32.063832 39.8856,32.03234 73.6021403,32.016594 z"
       id="path12589"
       inkscape:path-effect="#path-effect12591"
       inkscape:original-d="m 0,84.833163 c 40.842856,2.64e-4 81.685446,2.64e-4 122.52777,0 5.30174,18.963347 10.603,37.925677 15.9041,56.888117 9.09034,-23.982 18.18005,-47.963301 27.26967,-71.945348 114.10203,2.64e-4 228.19925,2.64e-4 342.29845,0 29.01778,2.64e-4 58.03416,2.64e-4 87.05083,0 0,-59.109769 0,-118.217438 0,-177.326552 -224.94499,2.6e-4 -449.88126,2.6e-4 -674.822287,0 2.65e-4,64.160965 2.65e-4,128.319104 0,192.47826 C -53.180183,84.896414 -26.590225,84.864921 0,84.833163 Z" />
    <path
       style="opacity:0.25;fill:#00ffff;stroke:#000000;stroke-width:0.264583px;stroke-linecap:butt;stroke-linejoin:miter;stroke-opacity:1"
       d="m 20.861317,66.640169 c 20.421428,0 61.264018,0 84.335963,9.481695 23.07194,9.481696 28.3732,28.444026 35.56885,25.934156 7.19565,-2.509862 16.28536,-26.491163 77.88134,-38.482122 61.59599,-11.990959 175.69321,-11.990959 247.2517,-11.990959 71.55849,0 100.57487,0 115.08321,-29.554887 14.50833,-29.5548871 14.50833,-88.662556 -97.96416,-118.217109 -112.4725,-29.554553 -337.40877,-29.554553 -449.879285,2.525926 -112.470516,32.080478 -112.470516,96.2386169 -99.174871,128.302443 13.295645,32.063826 39.885605,32.032327 53.180715,32.016577 13.29510954,-0.01575 13.29510954,-0.01572 33.716538,-0.01572 z"
       id="path12589-6"
       inkscape:path-effect="#path-effect12591-3"
       inkscape:original-d="m 0.43988854,66.640169 c 40.84285646,2.6e-4 81.68544646,2.6e-4 122.52777146,0 5.30174,18.96334 10.603,37.925671 15.9041,56.888111 9.09034,-23.982001 18.18005,-47.963301 27.26967,-71.945341 114.10203,2.6e-4 228.19925,2.6e-4 342.29845,0 29.01778,2.6e-4 58.03416,2.6e-4 87.05083,0 0,-59.1097741 0,-118.217443 0,-177.326549 -224.94499,2.6e-4 -449.88126,2.6e-4 -674.822291,0 2.7e-4,64.160957 2.7e-4,128.3190959 0,192.478249 26.59129,-0.0312 53.18125,-0.0627 79.77146954,-0.0945 z"
       inkscape:transform-center-x="134.73385"
       inkscape:transform-center-y="79.389056" />
    <path
       style="opacity:0.25;fill:#00ffff;stroke:#000000;stroke-width:0.264583px;stroke-linecap:butt;stroke-linejoin:miter;stroke-opacity:1"
       d="m 21.951032,45.833962 c 20.42143,0 61.26401,0 84.335958,9.481695 23.07194,9.481696 28.3732,28.444026 35.56885,25.93416 7.19565,-2.509867 16.28536,-26.491167 77.88134,-38.482126 61.59599,-11.990959 175.69321,-11.990959 247.2517,-11.990959 71.55849,0 100.57487,0 115.08321,-29.554887 14.50833,-29.554887 14.50833,-88.662555 -97.96416,-118.217115 -112.4725,-29.55455 -337.40877,-29.55455 -449.879284,2.52593 -112.470514,32.08048 -112.470514,96.238619 -99.174869,128.302445 13.295645,32.063826 39.885605,32.032327 53.180715,32.016577 13.2951102,-0.01575 13.2951102,-0.01572 33.71654,-0.01572 z"
       id="path12589-6-5"
       inkscape:path-effect="#path-effect12591-3-7"
       inkscape:original-d="m 1.5296022,45.833962 c 40.8428598,2.6e-4 81.6854398,2.6e-4 122.5277678,0 5.30174,18.96334 10.603,37.925671 15.9041,56.888108 9.09034,-23.981998 18.18005,-47.963298 27.26967,-71.945338 114.10203,2.6e-4 228.19925,2.6e-4 342.29845,0 29.01778,2.6e-4 58.03416,2.6e-4 87.05083,0 0,-59.109774 0,-118.217442 0,-177.326552 -224.94499,2.6e-4 -449.88126,2.6e-4 -674.822288,0 2.7e-4,64.16096 2.7e-4,128.319099 0,192.478252 26.59129,-0.0312 53.18125,-0.0627 79.7714702,-0.0945 z"
       inkscape:transform-center-x="134.73385"
       inkscape:transform-center-y="79.389056" />
    <path
       style="opacity:0.25;fill:#00ffff;stroke:#000000;stroke-width:0.264583px;stroke-linecap:butt;stroke-linejoin:miter;stroke-opacity:1"
       d="m 22.948057,23.883261 c 20.421428,0 61.264015,0 84.335963,9.481695 23.07194,9.481696 28.3732,28.444022 35.56885,25.934156 7.19565,-2.509865 16.28536,-26.491163 77.88134,-38.482122 C 282.3302,8.8260309 396.42742,8.8260309 467.98591,8.8260309 c 71.55849,0 100.57487,0 115.0832,-29.5548869 14.50834,-29.554887 14.50834,-88.662554 -97.96415,-118.217104 -112.4725,-29.55456 -337.40877,-29.55456 -449.879286,2.52592 -112.470515,32.08048 -112.470515,96.238618 -99.17487,128.302444 13.295645,32.063826 39.885605,32.032327 53.180715,32.016577 13.2951096,-0.01575 13.2951096,-0.01572 33.716538,-0.01572 z"
       id="path12589-6-56"
       inkscape:path-effect="#path-effect12591-3-3"
       inkscape:original-d="m 2.5266286,23.883261 c 40.8428564,2.6e-4 81.6854434,2.6e-4 122.5277714,0 5.30174,18.96334 10.603,37.925667 15.9041,56.888107 9.09034,-23.982 18.18005,-47.963297 27.26967,-71.9453371 114.10203,2.6e-4 228.19925,2.6e-4 342.29845,0 29.01778,2.6e-4 58.03416,2.6e-4 87.05083,0 0,-59.1097739 0,-118.2174409 0,-177.3265509 -224.94499,2.6e-4 -449.88126,2.6e-4 -674.822291,0 2.7e-4,64.16096 2.7e-4,128.319098 0,192.478251 26.59129,-0.0312 53.18125,-0.0627 79.7714696,-0.0945 z"
       inkscape:transform-center-x="134.73385"
       inkscape:transform-center-y="79.389056" />
    <path
       style="opacity:0.25;fill:#00ffff;stroke:#000000;stroke-width:0.264583px;stroke-linecap:butt;stroke-linejoin:miter;stroke-opacity:1"
       d="m 24.40014,6.6000645 c 20.421428,0 61.264018,0 84.33596,9.4816955 23.07194,9.481696 28.37321,28.444026 35.56886,25.934159 7.19565,-2.509866 16.28536,-26.491167 77.88134,-38.4821258 61.59599,-11.9909587 175.69321,-11.9909587 247.2517,-11.9909587 71.55849,0 100.57487,0 115.0832,-29.5548875 14.50834,-29.554887 14.50834,-88.662557 -97.96415,-118.217107 -112.4725,-29.55456 -337.40877,-29.55456 -449.879286,2.52592 -112.470517,32.08048 -112.470517,96.238621 -99.174875,128.302447 13.295643,32.0638266 39.885603,32.0323272 53.1807128,32.0165773 13.2951101,-0.01575 13.2951101,-0.01572 33.7165382,-0.01572 z"
       id="path12589-6-9"
       inkscape:path-effect="#path-effect12591-3-2"
       inkscape:original-d="m 3.9787119,6.6000645 c 40.8428561,2.6e-4 81.6854461,2.6e-4 122.5277681,0 5.30175,18.9633395 10.60301,37.9256705 15.90411,56.8881105 9.09034,-23.982001 18.18005,-47.963301 27.26967,-71.9453405 114.10203,2.6e-4 228.19925,2.6e-4 342.29845,0 29.01778,2.6e-4 58.03416,2.6e-4 87.05083,0 0,-59.1097745 0,-118.2174445 0,-177.3265545 -224.94499,2.6e-4 -449.88126,2.6e-4 -674.822293,0 2.7e-4,64.16096 2.7e-4,128.319101 0,192.4782545 26.591285,-0.0312 53.181245,-0.0627 79.7714649,-0.0945 z"
       inkscape:transform-center-x="134.73385"
       inkscape:transform-center-y="79.389056" />
    <path
       style="opacity:0.25;fill:#00ffff;stroke:#000000;stroke-width:0.264583px;stroke-linecap:butt;stroke-linejoin:miter;stroke-opacity:1"
       d="m 25.785463,-9.9467929 c 20.421428,0 61.264018,0 84.335957,9.48169582 23.07195,9.48169578 28.3732,28.44402708 35.56885,25.93416008 7.19565,-2.509867 16.28536,-26.4911678 77.88134,-38.482127 61.59599,-11.990959 175.69321,-11.990959 247.2517,-11.990959 71.55849,0 100.57487,0 115.08321,-29.554887 14.50833,-29.554887 14.50833,-88.66256 -97.96416,-118.21711 -112.4725,-29.55455 -337.40877,-29.55455 -449.879283,2.52593 -112.470514,32.08048 -112.470514,96.238614 -99.174868,128.30244 13.295646,32.0638262 39.885606,32.0323268 53.1807156,32.0165769 13.29511,-0.01575 13.29511,-0.01572 33.7165384,-0.01572 z"
       id="path12589-6-2"
       inkscape:path-effect="#path-effect12591-3-1"
       inkscape:original-d="m 5.3640346,-9.9467929 c 40.8428564,2.6e-4 81.6854464,2.6e-4 122.5277754,0 5.30174,18.96334 10.603,37.9256709 15.90409,56.8881149 9.09034,-23.982005 18.18005,-47.9633049 27.26967,-71.945345 114.10203,2.6e-4 228.19925,2.6e-4 342.29845,0 29.01778,2.6e-4 58.03416,2.6e-4 87.05083,0 0,-59.109774 0,-118.217447 0,-177.326547 -224.94499,2.6e-4 -449.88126,2.6e-4 -674.822287,0 2.7e-4,64.16096 2.7e-4,128.319094 0,192.4782471 26.591292,-0.0312 53.181252,-0.0627 79.7714716,-0.0945 z"
       inkscape:transform-center-x="134.73385"
       inkscape:transform-center-y="79.389056" />
    <path
       style="opacity:0.25;fill:#00ffff;stroke:#000000;stroke-width:0.264583px;stroke-linecap:butt;stroke-linejoin:miter;stroke-opacity:1"
       d="m 495.42176,192.56688 c -20.42143,0 -61.26402,0 -84.33596,-9.4817 -23.07194,-9.4817 -28.3732,-28.44404 -35.56885,-25.93417 -7.19565,2.50986 -16.28536,26.49117 -77.88134,38.48214 -61.59599,11.99096 -175.69321,11.99096 -247.251698,11.99096 -71.558489,0 -100.57487,0 -115.083205,29.55488 -14.508335,29.55489 -14.508335,88.66256 97.964159,118.21711 112.472494,29.55456 337.408764,29.55456 449.879274,-2.52593 112.47052,-32.08048 112.47052,-96.23861 99.17488,-128.30244 -13.29565,-32.06383 -39.8856,-32.03233 -53.18071,-32.01658 -13.29512,0.0157 -13.29512,0.0157 -33.71655,0.0157 z"
       id="path13038"
       inkscape:path-effect="#path-effect13042"
       inkscape:original-d="m 515.84319,192.56688 c -40.84286,-2.7e-4 -81.68545,-2.7e-4 -122.52777,0 -5.30174,-18.96335 -10.603,-37.92569 -15.9041,-56.88813 -9.09034,23.982 -18.18005,47.96331 -27.26967,71.94536 -114.10203,-2.7e-4 -228.19925,-2.7e-4 -342.2984475,0 -29.0177795,-2.7e-4 -58.0341605,-2.7e-4 -87.0508305,0 0,59.10977 0,118.21744 0,177.32655 224.944988,-2.6e-4 449.881258,-2.6e-4 674.822288,0 -2.7e-4,-64.16097 -2.7e-4,-128.3191 0,-192.47826 -26.59129,0.0312 -53.18124,0.0627 -79.77147,0.0945 z" />
    <path
       style="opacity:0.25;fill:#00ffff;stroke:#000000;stroke-width:0.264583px;stroke-linecap:butt;stroke-linejoin:miter;stroke-opacity:1"
       d="m 494.98187,210.75987 c -20.42142,0 -61.26401,0 -84.33595,-9.4817 -23.07195,-9.48169 -28.37321,-28.44402 -35.56886,-25.93415 -7.19565,2.50986 -16.28536,26.49116 -77.88134,38.48212 -61.59599,11.99096 -175.69321,11.99096 -247.251699,11.99096 -71.558488,0 -100.574869,0 -115.083204,29.55489 -14.508335,29.55488 -14.508335,88.66255 97.964159,118.21711 112.472494,29.55455 337.408764,29.55455 449.879274,-2.52593 112.47052,-32.08048 112.47052,-96.23862 99.17488,-128.30244 -13.29565,-32.06383 -39.88561,-32.03233 -53.18072,-32.01658 -13.29511,0.0157 -13.29511,0.0157 -33.71654,0.0157 z"
       id="path13044"
       inkscape:path-effect="#path-effect13048"
       inkscape:original-d="m 515.4033,210.75987 c -40.84285,-2.6e-4 -81.68544,-2.6e-4 -122.52777,0 -5.30174,-18.96334 -10.603,-37.92567 -15.9041,-56.88812 -9.09034,23.98201 -18.18005,47.96331 -27.26967,71.94535 -114.10203,-2.6e-4 -228.19925,-2.6e-4 -342.2984475,0 -29.0177795,-2.6e-4 -58.0341605,-2.6e-4 -87.0508305,0 0,59.10977 0,118.21744 0,177.32655 224.944988,-2.6e-4 449.881258,-2.6e-4 674.822288,0 -2.7e-4,-64.16096 -2.7e-4,-128.3191 0,-192.47825 -26.59129,0.0312 -53.18125,0.0627 -79.77147,0.0945 z"
       inkscape:transform-center-x="-134.73385"
       inkscape:transform-center-y="-79.389056" />
    <path
       style="opacity:0.25;fill:#00ffff;stroke:#000000;stroke-width:0.264583px;stroke-linecap:butt;stroke-linejoin:miter;stroke-opacity:1"
       d="m 493.89216,231.56608 c -20.42143,0 -61.26401,0 -84.33595,-9.4817 -23.07195,-9.48169 -28.37321,-28.44402 -35.56886,-25.93415 -7.19565,2.50986 -16.28536,26.49116 -77.88134,38.48212 -61.59599,11.99096 -175.69321,11.99096 -247.251699,11.99096 -71.558488,0 -100.574869,0 -115.083204,29.55488 -14.508335,29.55489 -14.508335,88.66256 97.964159,118.21711 112.472494,29.55456 337.408764,29.55456 449.879274,-2.52592 112.47052,-32.08048 112.47052,-96.23862 99.17488,-128.30244 -13.29565,-32.06383 -39.88561,-32.03233 -53.18072,-32.01658 -13.29511,0.0157 -13.29511,0.0157 -33.71654,0.0157 z"
       id="path13050"
       inkscape:path-effect="#path-effect13054"
       inkscape:original-d="m 514.31359,231.56608 c -40.84286,-2.6e-4 -81.68544,-2.6e-4 -122.52777,0 -5.30174,-18.96334 -10.603,-37.92567 -15.9041,-56.88811 -9.09034,23.982 -18.18005,47.9633 -27.26967,71.94534 -114.10203,-2.6e-4 -228.19925,-2.6e-4 -342.2984475,0 -29.0177795,-2.6e-4 -58.0341605,-2.6e-4 -87.0508305,0 0,59.10977 0,118.21744 0,177.32655 224.944988,-2.6e-4 449.881258,-2.6e-4 674.822288,0 -2.7e-4,-64.16096 -2.7e-4,-128.3191 0,-192.47825 -26.59129,0.0312 -53.18125,0.0627 -79.77147,0.0945 z"
       inkscape:transform-center-x="-134.73385"
       inkscape:transform-center-y="-79.389054" />
    <path
       style="opacity:0.25;fill:#00ffff;stroke:#000000;stroke-width:0.264583px;stroke-linecap:butt;stroke-linejoin:miter;stroke-opacity:1"
       d="m 492.89513,253.51678 c -20.42142,0 -61.26401,0 -84.33595,-9.4817 -23.07195,-9.48169 -28.37321,-28.44402 -35.56886,-25.93415 -7.19565,2.50986 -16.28536,26.49116 -77.88134,38.48212 -61.59599,11.99096 -175.69321,11.99096 -247.251699,11.99096 -71.558488,0 -100.574869,0 -115.083204,29.55488 -14.508335,29.55489 -14.508335,88.66256 97.964159,118.21711 112.472494,29.55456 337.408764,29.55456 449.879274,-2.52592 112.47052,-32.08048 112.47052,-96.23862 99.17488,-128.30244 -13.29565,-32.06383 -39.88561,-32.03233 -53.18072,-32.01658 -13.29511,0.0157 -13.29511,0.0157 -33.71654,0.0157 z"
       id="path13056"
       inkscape:path-effect="#path-effect13060"
       inkscape:original-d="m 513.31656,253.51678 c -40.84285,-2.6e-4 -81.68544,-2.6e-4 -122.52777,0 -5.30174,-18.96334 -10.603,-37.92567 -15.9041,-56.88811 -9.09034,23.982 -18.18005,47.9633 -27.26967,71.94534 -114.10203,-2.6e-4 -228.19925,-2.6e-4 -342.2984475,0 -29.0177795,-2.6e-4 -58.0341605,-2.6e-4 -87.0508305,0 0,59.10977 0,118.21744 0,177.32655 224.944988,-2.6e-4 449.881258,-2.6e-4 674.822288,0 -2.7e-4,-64.16096 -2.7e-4,-128.3191 0,-192.47825 -26.59129,0.0312 -53.18125,0.0627 -79.77147,0.0945 z"
       inkscape:transform-center-x="-134.73385"
       inkscape:transform-center-y="-79.389057" />
    <path
       style="opacity:0.25;fill:#00ffff;stroke:#000000;stroke-width:0.264583px;stroke-linecap:butt;stroke-linejoin:miter;stroke-opacity:1"
       d="m 491.44305,270.79998 c -20.42143,0 -61.26402,0 -84.33596,-9.4817 -23.07194,-9.48169 -28.37321,-28.44403 -35.56886,-25.93416 -7.19565,2.50987 -16.28536,26.49117 -77.88134,38.48213 -61.59599,11.99096 -175.69321,11.99096 -247.251699,11.99096 -71.558488,0 -100.574869,0 -115.083204,29.55489 -14.508335,29.55488 -14.508335,88.66255 97.964159,118.21711 112.472494,29.55455 337.408764,29.55455 449.879284,-2.52593 112.47051,-32.08048 112.47051,-96.23862 99.17487,-128.30244 -13.29564,-32.06383 -39.8856,-32.03233 -53.18071,-32.01658 -13.29511,0.0157 -13.29511,0.0157 -33.71654,0.0157 z"
       id="path13062"
       inkscape:path-effect="#path-effect13066"
       inkscape:original-d="m 511.86448,270.79998 c -40.84286,-2.6e-4 -81.68545,-2.6e-4 -122.52777,0 -5.30175,-18.96334 -10.60301,-37.92568 -15.90411,-56.88812 -9.09034,23.98201 -18.18005,47.96331 -27.26967,71.94535 -114.10203,-2.6e-4 -228.19925,-2.6e-4 -342.2984475,0 -29.0177795,-2.6e-4 -58.0341605,-2.6e-4 -87.0508305,0 0,59.10977 0,118.21744 0,177.32655 224.944988,-2.6e-4 449.881258,-2.6e-4 674.822288,0 -2.7e-4,-64.16096 -2.7e-4,-128.3191 0,-192.47825 -26.59128,0.0312 -53.18124,0.0627 -79.77146,0.0945 z"
       inkscape:transform-center-x="-134.73385"
       inkscape:transform-center-y="-79.389056" />
    <path
       style="opacity:0.25;fill:#00ffff;stroke:#000000;stroke-width:0.264583px;stroke-linecap:butt;stroke-linejoin:miter;stroke-opacity:1"
       d="m 490.05773,287.34683 c -20.42143,0 -61.26402,0 -84.33596,-9.4817 -23.07195,-9.48169 -28.3732,-28.44402 -35.56885,-25.93416 -7.19565,2.50987 -16.28536,26.49117 -77.88134,38.48213 -61.59599,11.99096 -175.69321,11.99096 -247.251699,11.99096 -71.558488,0 -100.574869,0 -115.083204,29.55489 -14.508335,29.55489 -14.508335,88.66256 97.964159,118.21711 112.472494,29.55455 337.408764,29.55455 449.879274,-2.52593 112.47052,-32.08048 112.47052,-96.23861 99.17488,-128.30244 -13.29565,-32.06383 -39.88561,-32.03233 -53.18072,-32.01658 -13.29511,0.0157 -13.29511,0.0157 -33.71654,0.0157 z"
       id="path13068"
       inkscape:path-effect="#path-effect13072"
       inkscape:original-d="m 510.47916,287.34683 c -40.84286,-2.6e-4 -81.68545,-2.6e-4 -122.52778,0 -5.30174,-18.96334 -10.603,-37.92567 -15.90409,-56.88811 -9.09034,23.982 -18.18005,47.9633 -27.26967,71.94534 -114.10203,-2.6e-4 -228.19925,-2.6e-4 -342.2984475,0 -29.0177795,-2.6e-4 -58.0341605,-2.6e-4 -87.0508305,0 0,59.10978 0,118.21745 0,177.32655 224.944988,-2.6e-4 449.881258,-2.6e-4 674.822288,0 -2.7e-4,-64.16096 -2.7e-4,-128.31909 0,-192.47825 -26.59129,0.0312 -53.18125,0.0627 -79.77147,0.0945 z"
       inkscape:transform-center-x="-134.73385"
       inkscape:transform-center-y="-79.389056" />
    <path
       style="fill:#00a1a1;fill-opacity:1;stroke:#000000;stroke-width:0.264583px;stroke-linecap:butt;stroke-linejoin:miter;stroke-opacity:1"
       d="m 33.039654,166.3145 c 13.052448,2.90753 39.399006,-6.63463 42.8012,-22.46504 3.402195,-15.83042 -16.139301,-37.94854 -29.191888,-40.85614 -13.052588,-2.90759 -19.615319,13.39528 -23.017635,29.22586 -3.402317,15.83058 -3.644125,31.1878 9.408323,34.09532 z"
       id="path13107"
       inkscape:original-d="M 19.745396,178.76424 C 46.092218,169.22235 72.438778,159.6802 98.785073,150.13777 79.243065,128.01903 59.701572,105.9009 40.159426,83.782074 33.596696,100.08586 27.033963,116.38873 20.470837,132.69167 c -0.241554,15.35809 -0.483363,30.71531 -0.725441,46.07257 z"
       inkscape:path-effect="#path-effect13109" />
    <path
       style="fill:#00a1a1;fill-opacity:1;stroke:#000000;stroke-width:0.264583px;stroke-linecap:butt;stroke-linejoin:miter;stroke-opacity:1"
       d="m 293.85799,120.18982 c -7.64842,-0.323 -19.95236,17.76255 -18.45591,27.12836 1.49644,9.36582 16.79258,10.01156 22.94455,0.96875 6.15198,-9.0428 3.15978,-27.77411 -4.48864,-28.09711 z"
       id="path13115"
       sodipodi:nodetypes="cccc"
       inkscape:original-d="m 298.51404,101.7805 c -12.30416,18.08653 -24.6081,36.17208 -36.91255,54.25772 15.29702,0.64603 30.59316,1.29177 45.88933,1.93726 -2.99199,-18.73139 -5.9842,-37.46269 -8.97678,-56.19498 z"
       inkscape:path-effect="#path-effect13117" />
    <path
       style="fill:#00a1a1;fill-opacity:1;stroke:#000000;stroke-width:0.264583px;stroke-linecap:butt;stroke-linejoin:miter;stroke-opacity:1"
       d="m 363.59417,118.22852 c -11.3751,-6.94646 -29.73688,-4.27877 -37.68974,4.32172 -7.95286,8.60049 -5.49599,23.13276 5.87948,30.07888 11.37546,6.94613 31.66847,6.30615 39.62096,-2.29401 7.95249,-8.60015 3.5644,-25.16013 -7.8107,-32.10659 z"
       id="path13119"
       sodipodi:nodetypes="ccccc"
       inkscape:original-d="m 370.58101,108.61435 c -18.3619,2.66801 -36.72368,5.3357 -55.08646,8.00323 2.45723,14.53311 4.9141,29.06538 7.37076,43.59768 20.29407,-0.63974 40.58708,-1.27971 60.88023,-1.91997 -4.38801,-16.56038 -8.77607,-33.12036 -13.16453,-49.68094 z"
       inkscape:path-effect="#path-effect13121" />
    <path
       style="fill:#00a1a1;fill-opacity:1;stroke:#000000;stroke-width:0.264583px;stroke-linecap:butt;stroke-linejoin:miter;stroke-opacity:1"
       d="m 433.31342,114.47944 c -7.01144,-6.48212 -22.19321,-4.89273 -29.21294,3.08831 -7.01973,7.98104 -5.87664,22.35279 1.13515,28.83461 7.0118,6.48182 19.89131,5.07382 26.91081,-2.90694 7.0195,-7.98076 8.17843,-22.53385 1.16698,-29.01598 z"
       id="path13119-0"
       sodipodi:nodetypes="ccccc"
       inkscape:original-d="m 441.48384,106.40792 c -15.18183,1.58969 -30.3636,3.17908 -45.54624,4.76827 1.1434,14.37258 2.28648,28.74433 3.42932,43.11611 12.88054,-1.40783 25.76005,-2.81584 38.64007,-4.22419 1.15924,-14.55343 2.31816,-29.10652 3.47685,-43.66019 z"
       inkscape:path-effect="#path-effect13121-7" />
    <path
       style="fill:#00a1a1;fill-opacity:1;stroke:#000000;stroke-width:0.264583px;stroke-linecap:butt;stroke-linejoin:miter;stroke-opacity:1"
       d="m 173.08316,134.52001 c -11.4231,-1.63437 -27.48407,9.98034 -24.09114,17.42196 3.39293,7.44162 26.23859,10.70995 34.26893,4.90258 8.03034,-5.80737 1.24532,-20.69017 -10.17779,-22.32454 z"
       id="path14015"
       inkscape:original-d="m 177.72097,121.27097 c -16.0607,11.61497 -32.12166,23.22968 -48.18289,34.84413 22.84684,3.26872 45.6925,6.53704 68.53836,9.80516 -6.78503,-14.88313 -13.57005,-29.76593 -20.35547,-44.64929 z"
       inkscape:path-effect="#path-effect14017" />
    <path
       style="fill:#00a1a1;fill-opacity:1;stroke:#000000;stroke-width:0.264583px;stroke-linecap:butt;stroke-linejoin:miter;stroke-opacity:1"
       d="m 215.65513,132.42145 c -7.09628,4.15368 -1.79178,20.26407 7.95678,24.16543 9.74856,3.90136 23.94062,-4.40564 21.28829,-12.46083 -2.65233,-8.05519 -22.14879,-15.85827 -29.24507,-11.7046 z"
       id="path14019"
       inkscape:original-d="m 203.25423,120.46441 c 5.30477,16.11067 10.60928,32.22106 15.91353,48.3312 14.19289,-8.30706 28.38495,-16.61406 42.57704,-24.92148 -19.49698,-7.80313 -38.99345,-15.60621 -58.49057,-23.40972 z"
       inkscape:path-effect="#path-effect14021" />
    <path
       style="fill:#00a1a1;fill-opacity:1;stroke:#000000;stroke-width:0.264583px;stroke-linecap:butt;stroke-linejoin:miter;stroke-opacity:1"
       d="m 462.5441,116.28818 c -3.93672,4.97231 -3.00019,17.5654 3.74465,23.51117 6.74484,5.94576 19.29728,5.24454 23.23377,0.2724 3.93649,-4.97214 -0.74294,-14.21516 -7.48756,-20.16122 -6.74461,-5.94606 -15.55413,-8.59466 -19.49086,-3.62235 z"
       id="path16256"
       inkscape:original-d="m 457.67082,108.66712 c 0.93681,12.59335 1.87333,25.18644 2.80961,37.77926 12.55318,-0.70099 25.10562,-1.40222 37.65804,-2.10372 -4.67934,-9.24311 -9.35879,-18.48612 -14.03858,-27.72958 -8.80959,-2.64844 -17.61911,-5.29704 -26.42907,-7.94596 z"
       inkscape:path-effect="#path-effect16258" />
    <path
       inkscape:export-filename="/home/ogyun/Documents/site/cj1063-s-websites-testing/assets/Wallpapers/Wallpapers-33-Dots-Mobile.png"
       inkscape:export-xdpi="96"
       inkscape:export-ydpi="96"
       style="fill:#00a1a1;fill-opacity:1;stroke:#000000;stroke-width:0.264583px;stroke-linecap:butt;stroke-linejoin:miter;stroke-opacity:1"
       d="m 107.82465,130.3345 c -5.54796,6.31214 -7.26232,18.90075 -0.95443,25.24038 6.30789,6.33962 20.63717,6.43049 26.18485,0.11849 5.54767,-6.312 2.31378,-19.02666 -3.99382,-25.36656 -6.3076,-6.33989 -15.68865,-6.30445 -21.2366,0.008 z"
       id="path16579"
       inkscape:original-d="m 103.99109,124.05781 c -1.7141,12.58887 -3.42846,25.17748 -5.143094,37.76582 14.330114,0.0911 28.659394,0.18201 42.988694,0.27261 -3.23376,-12.71492 -6.46765,-25.42958 -9.70188,-38.14477 -9.38116,0.0357 -18.76221,0.0712 -28.14372,0.10634 z"
       inkscape:path-effect="#path-effect16581" />
  </g>
</svg>
